<?xml version="1.0" encoding="UTF-8"?>
<svg version="1.1" xmlns="http://www.w3.org/2000/svg" width="220" height="229">
<path d="M0 0 C72.6 0 145.2 0 220 0 C220 75.57 220 151.14 220 229 C147.4 229 74.8 229 0 229 C0 153.43 0 77.86 0 0 Z " fill="#FEFEFE" transform="translate(0,0)"/>
<path d="M0 0 C3.18576017 2.79775092 5.23753101 6.33947476 7.5 9.875 C18.17902111 26.1827675 31.34565668 40.67796743 48 51 C48.91458984 51.56847656 48.91458984 51.56847656 49.84765625 52.1484375 C57.50691876 56.83521415 65.34877675 60.78747252 73.6875 64.125 C74.44184326 64.43260254 75.19618652 64.74020508 75.97338867 65.05712891 C79.99398647 66.59168051 82.79977041 67.57597749 87 66 C94.39619898 62.23277716 100.5011127 57.01013946 106.4921875 51.33203125 C109 49 109 49 111.609375 46.93359375 C113.80332431 45.15907592 115.55642195 43.39680921 117.375 41.25 C118.25671875 40.22132812 118.25671875 40.22132812 119.15625 39.171875 C119.7646875 38.45515625 120.373125 37.7384375 121 37 C122.28823865 35.49705491 123.57978087 33.99693359 124.875 32.5 C125.44992188 31.8296875 126.02484375 31.159375 126.6171875 30.46875 C127.07351562 29.9840625 127.52984375 29.499375 128 29 C128.33 29 128.66 29 129 29 C129.05900769 33.66816367 129.04041776 38.33174903 129 43 C129.04640625 44.16789062 129.04640625 44.16789062 129.09375 45.359375 C128.97932655 52.28199359 123.57205263 56.46284854 119 61 C118.16597656 61.85851562 117.33195312 62.71703125 116.47265625 63.6015625 C110.40416019 69.79791991 110.40416019 69.79791991 108 71 C109.71943246 71.91242815 109.71943246 71.91242815 112 72 C114.6949474 70.13401486 114.6949474 70.13401486 117.25 67.5625 C118.14203125 66.71816406 119.0340625 65.87382812 119.953125 65.00390625 C120.62859375 64.34261719 121.3040625 63.68132812 122 63 C122 70.03170429 114.68685712 78.10010392 110 83 C104.16333519 88.53494774 98.14303253 92.75291736 91 96.375 C90.37246826 96.69645996 89.74493652 97.01791992 89.09838867 97.34912109 C79.35319685 102.06297011 69.8891156 103.53716041 59.125 103.4375 C57.97894287 103.42992676 56.83288574 103.42235352 55.65209961 103.41455078 C47.42854326 103.25414255 40.52249075 102.53546051 33 99 C32.06800781 98.57589844 31.13601562 98.15179688 30.17578125 97.71484375 C13.89418782 89.56269307 0.57203953 75.5291141 -5.39453125 58.1953125 C-7.05286638 52.6519025 -8.21007885 47.81218152 -8 42 C-5.48066346 44.43806762 -3.10452257 46.87619841 -0.83984375 49.55859375 C-0.06769531 50.46738281 0.70445313 51.37617187 1.5 52.3125 C2.2321875 53.19550781 2.964375 54.07851562 3.71875 54.98828125 C5.84545329 57.25518255 5.84545329 57.25518255 8.78125 57.29296875 C9.5134375 57.19628906 10.245625 57.09960938 11 57 C10.52691406 56.55011719 10.05382812 56.10023437 9.56640625 55.63671875 C3.89940566 50.12437315 -1.11225508 44.2084965 -6 38 C-6.58136719 37.35160156 -7.16273437 36.70320313 -7.76171875 36.03515625 C-10.46440156 31.59320753 -8.84922824 25.88050444 -8 21 C-6.13569625 13.68396529 -3.49530112 6.69421705 0 0 Z " fill="#3C05E1" transform="translate(53,69)"/>
<path d="M0 0 C2.49361571 1.20381448 4.68143083 2.45428722 7 4 C7.328125 5.96875 7.328125 5.96875 7.25 8.5 C7.21132812 9.94826172 7.21132812 9.94826172 7.171875 11.42578125 C6.82591221 18.6202348 6.44289726 25.81082833 6 33 C6.99 33 7.98 33 9 33 C8.97679687 32.44054687 8.95359375 31.88109375 8.9296875 31.3046875 C8.75919991 23.73016734 9.79505748 16.46634028 11 9 C11.495 9.99 11.495 9.99 12 11 C12.66 11 13.32 11 14 11 C14.1931031 16.31033517 13.71119098 20.79265219 12.4453125 25.9453125 C11.92768103 28.33368225 11.84282595 30.56380218 12 33 C13.98 33.66 15.96 34.32 18 35 C18.2475 34.154375 18.495 33.30875 18.75 32.4375 C19.70257298 29.8179243 20.61178138 27.79954362 22 25.4375 C23.62983276 22.63622494 24.84910081 20.01004403 26 17 C27 16 27 16 29.5625 15.9375 C30.366875 15.958125 31.17125 15.97875 32 16 C30.64517553 18.7749417 29.18798865 21.45109614 27.6171875 24.109375 C27.17246094 24.86347656 26.72773438 25.61757812 26.26953125 26.39453125 C25.80933594 27.17183594 25.34914063 27.94914062 24.875 28.75 C24.17310547 29.93916016 24.17310547 29.93916016 23.45703125 31.15234375 C22.30587205 33.10226648 21.15349193 35.05145661 20 37 C20.99 37 21.98 37 23 37 C23.22558594 36.32324219 23.45117188 35.64648438 23.68359375 34.94921875 C25.3610002 31.191231 27.62533832 28.11145859 30.0625 24.8125 C33.28371363 20.56475136 33.28371363 20.56475136 36 16 C39.47325181 14.8422494 42.36067448 14.93133348 46 15 C46 18.3 46 21.6 46 25 C45.34 25 44.68 25 44 25 C43.505 26.485 43.505 26.485 43 28 C41.3984375 29.61328125 41.3984375 29.61328125 39.375 31.3125 C38.65957031 31.9209375 37.94414062 32.529375 37.20703125 33.15625 C36.11455078 34.06890625 36.11455078 34.06890625 35 35 C33.68544647 36.10172106 32.37277004 37.20568804 31.0625 38.3125 C30.49660156 38.78300781 29.93070312 39.25351563 29.34765625 39.73828125 C27.86554616 40.97950473 27.86554616 40.97950473 27 43 C34.18043397 39.40978301 39.95303941 34.20296773 46 29 C46.99 30.485 46.99 30.485 48 32 C52.97966692 26.54006063 57.68339698 21.00073223 62 15 C66.07146316 18.40907761 67.47059211 22.0141439 69.1875 26.875 C69.44724609 27.56980469 69.70699219 28.26460937 69.97460938 28.98046875 C72.89360922 36.99074739 72.89360922 36.99074739 73 41 C71.375 43.4921875 71.375 43.4921875 69 45.875 C68.16339844 46.73738281 67.32679688 47.59976563 66.46484375 48.48828125 C65.65144531 49.31714844 64.83804688 50.14601562 64 51 C62.84412633 52.34560672 61.6973163 53.69908761 60.5625 55.0625 C52.82840184 63.87618623 43.75451041 70.63196113 34 77 C33.17113281 77.57621094 32.34226562 78.15242188 31.48828125 78.74609375 C27.93114751 81.03681339 25.21161846 82.47253336 20.9375 81.8125 C6.38178167 77.34363911 -16.97124663 66.23360038 -25 53 C-24.6875 50.75 -24.6875 50.75 -24 49 C-26.31 47.68 -28.62 46.36 -31 45 C-31 44.34 -31 43.68 -31 43 C-26.78087253 43.4794463 -24.20336822 44.16625119 -21 47 C-22.29581953 43.11254141 -24.06434346 42.22982395 -27.375 39.875 C-28.35210937 39.17117187 -29.32921875 38.46734375 -30.3359375 37.7421875 C-32.93779866 35.87930616 -32.93779866 35.87930616 -36 35 C-36 34.34 -36 33.68 -36 33 C-36.61875 32.690625 -37.2375 32.38125 -37.875 32.0625 C-39.25 31.375 -40.625 30.6875 -42 30 C-42.4140625 27.71484375 -42.4140625 27.71484375 -42.625 24.9375 C-42.69976562 24.01839844 -42.77453125 23.09929687 -42.8515625 22.15234375 C-42.90054688 21.44207031 -42.94953125 20.73179688 -43 20 C-41.60696395 19.86342784 -40.20993879 19.76728851 -38.8125 19.6875 C-38.03519531 19.62949219 -37.25789063 19.57148437 -36.45703125 19.51171875 C-32.80734423 20.23701426 -31.45820075 22.25303471 -29 25 C-27.96451893 26.08941064 -26.9266554 27.17656054 -25.88671875 28.26171875 C-24.81919131 29.40259776 -23.75279727 30.54453829 -22.6875 31.6875 C-22.13771484 32.26822266 -21.58792969 32.84894531 -21.02148438 33.44726562 C-17 37.76848797 -17 37.76848797 -17 40 C-16.01 39.505 -16.01 39.505 -15 39 C-16.17451469 36.22387436 -17.66968014 34.1349731 -19.625 31.875 C-22 29 -22 29 -22 27 C-22.66 27 -23.32 27 -24 27 C-25.32 24.69 -26.64 22.38 -28 20 C-25.73046875 19.70703125 -25.73046875 19.70703125 -23 20 C-21.05078125 22.01171875 -21.05078125 22.01171875 -19.3125 24.6875 C-18.73113281 25.55761719 -18.14976563 26.42773438 -17.55078125 27.32421875 C-16.09642249 29.83362871 -14.99478101 32.28027853 -14 35 C-11.36 35 -8.72 35 -6 35 C-6.54140625 33.38931641 -6.54140625 33.38931641 -7.09375 31.74609375 C-7.56303827 30.31007163 -8.0317581 28.87386365 -8.5 27.4375 C-8.73847656 26.73302734 -8.97695312 26.02855469 -9.22265625 25.30273438 C-10.71425759 20.67877023 -11.25529455 16.85697889 -11 12 C-10.01 11.67 -9.02 11.34 -8 11 C-7.32438628 13.5395837 -6.65934172 16.08118835 -6 18.625 C-5.80921875 19.33785156 -5.6184375 20.05070312 -5.421875 20.78515625 C-4.34982713 24.95848544 -3.78053186 28.65178751 -4 33 C-3.01 33 -2.02 33 -1 33 C-1.12117188 32.36497559 -1.24234375 31.72995117 -1.3671875 31.07568359 C-1.91709784 28.17649283 -2.45861591 25.27579449 -3 22.375 C-3.19078125 21.37597656 -3.3815625 20.37695312 -3.578125 19.34765625 C-5.47137532 9.13762777 -5.47137532 9.13762777 -5 5 C-2.5 2.125 -2.5 2.125 0 0 Z " fill="#FBD117" transform="translate(108,53)"/>
<path d="M0 0 C3.18576017 2.79775092 5.23753101 6.33947476 7.5 9.875 C18.17902111 26.1827675 31.34565668 40.67796743 48 51 C48.91458984 51.56847656 48.91458984 51.56847656 49.84765625 52.1484375 C60.09488063 58.41881299 70.71323135 62.93728582 82 67 C82 67.99 82 68.98 82 70 C80.73308493 70.67408308 79.46129251 71.33900497 78.1875 72 C77.47980469 72.37125 76.77210938 72.7425 76.04296875 73.125 C74 74 74 74 71 74 C71 73.01 71 72.02 71 71 C70.34 71 69.68 71 69 71 C69 71.66 69 72.32 69 73 C68.34 73 67.68 73 67 73 C67 71.02 67 69.04 67 67 C61.5155733 66.25669086 61.5155733 66.25669086 56 66 C54.76732652 67.00836062 54.76732652 67.00836062 54.90234375 69.06640625 C54.91394531 69.89011719 54.92554688 70.71382813 54.9375 71.5625 C54.94652344 72.38878906 54.95554688 73.21507812 54.96484375 74.06640625 C54.97644531 74.70449219 54.98804688 75.34257812 55 76 C54.34 76 53.68 76 53 76 C53 76.66 53 77.32 53 78 C52.4225 77.79375 51.845 77.5875 51.25 77.375 C48.97938269 76.7658954 48.97938269 76.7658954 47.0625 78 C44.22206285 79.37718165 43.03265877 78.86888415 40 78 C37.58435342 76.77508487 35.30748663 75.52680559 33 74.125 C32.34499512 73.72861328 31.68999023 73.33222656 31.01513672 72.92382812 C16.45883348 63.85907738 4.52362209 51.41867475 -6 38 C-6.58007812 37.35289063 -7.16015625 36.70578125 -7.7578125 36.0390625 C-10.46483176 31.59546484 -8.84984373 25.88404167 -8 21 C-6.13569625 13.68396529 -3.49530112 6.69421705 0 0 Z " fill="#2505D2" transform="translate(53,69)"/>
<path d="M0 0 C4.07146316 3.40907761 5.47059211 7.0141439 7.1875 11.875 C7.44724609 12.56980469 7.70699219 13.26460937 7.97460938 13.98046875 C10.89360922 21.99074739 10.89360922 21.99074739 11 26 C9.375 28.4921875 9.375 28.4921875 7 30.875 C6.16339844 31.73738281 5.32679688 32.59976563 4.46484375 33.48828125 C3.65144531 34.31714844 2.83804688 35.14601562 2 36 C0.84412633 37.34560672 -0.3026837 38.69908761 -1.4375 40.0625 C-9.17159816 48.87618623 -18.24548959 55.63196113 -28 62 C-28.82886719 62.57621094 -29.65773437 63.15242188 -30.51171875 63.74609375 C-34.06885249 66.03681339 -36.78838154 67.47253336 -41.0625 66.8125 C-50.11486237 64.05673659 -58.9823889 58.95662391 -67 54 C-64.28832105 50.60786229 -60.59325529 49.44107802 -56.6875 47.875 C-33.32720897 38.06325313 -14.66853529 20.34667799 0 0 Z " fill="#D71904" transform="translate(170,68)"/>
<path d="M0 0 C0.33 0 0.66 0 1 0 C1.05900769 4.66816367 1.04041776 9.33174903 1 14 C1.0309375 14.77859375 1.061875 15.5571875 1.09375 16.359375 C0.9792116 23.28894814 -4.43144774 27.45272982 -9 32 C-9.70640625 32.75410156 -10.4128125 33.50820312 -11.140625 34.28515625 C-23.711077 47.48413085 -41.03563504 60.67309919 -59 65 C-63.40018196 64.82786574 -66.94892352 63.66809032 -71 62 C-72.60101563 61.37351562 -72.60101563 61.37351562 -74.234375 60.734375 C-77.18187935 59.54099519 -80.089393 58.27999118 -83 57 C-84.66397715 56.32664848 -86.32980318 55.65777261 -88 55 C-88 54.67 -88 54.34 -88 54 C-87.1793103 53.82778931 -87.1793103 53.82778931 -86.34204102 53.65209961 C-62.69534149 48.59782437 -41.2670401 40.26318356 -23 24 C-21.79923828 22.9790625 -21.79923828 22.9790625 -20.57421875 21.9375 C-15.57775561 17.63802247 -11.22994307 13.04488623 -7 8 C-5.71260972 6.49632815 -4.42103092 4.99623081 -3.125 3.5 C-2.26261719 2.49453125 -2.26261719 2.49453125 -1.3828125 1.46875 C-0.92648438 0.9840625 -0.47015625 0.499375 0 0 Z " fill="#E71204" transform="translate(181,98)"/>
<path d="M0 0 C0.99 0 1.98 0 3 0 C3 1.65 3 3.3 3 5 C3.33 5 3.66 5 4 5 C4 6.65 4 8.3 4 10 C6.32809543 10.68473395 8.66237777 11.34853151 11 12 C11.804375 12.309375 12.60875 12.61875 13.4375 12.9375 C17.67211178 13.04078321 20.65017989 10.40222831 24 8 C24.91265625 8.70962891 24.91265625 8.70962891 25.84375 9.43359375 C39.19417976 19.50531503 53.30398311 26.35016059 69 32 C69 32.99 69 33.98 69 35 C67.73308493 35.67408308 66.46129251 36.33900497 65.1875 37 C64.47980469 37.37125 63.77210938 37.7425 63.04296875 38.125 C61 39 61 39 58 39 C58 38.01 58 37.02 58 36 C57.34 36 56.68 36 56 36 C56 36.66 56 37.32 56 38 C55.34 38 54.68 38 54 38 C54 36.02 54 34.04 54 32 C48.5155733 31.25669086 48.5155733 31.25669086 43 31 C41.76732652 32.00836062 41.76732652 32.00836062 41.90234375 34.06640625 C41.91394531 34.89011719 41.92554688 35.71382812 41.9375 36.5625 C41.94652344 37.38878906 41.95554688 38.21507812 41.96484375 39.06640625 C41.97644531 39.70449219 41.98804688 40.34257812 42 41 C41.34 41 40.68 41 40 41 C40 41.66 40 42.32 40 43 C39.4225 42.79375 38.845 42.5875 38.25 42.375 C35.97938269 41.7658954 35.97938269 41.7658954 34.0625 43 C31.19771854 44.38898495 30.06366068 43.90107667 27 43 C24.32718047 41.66268124 21.79396229 40.12858083 19.25 38.5625 C18.22326172 37.95051758 18.22326172 37.95051758 17.17578125 37.32617188 C12.13267924 34.26535848 12.13267924 34.26535848 11 32 C12.32 31.67 13.64 31.34 15 31 C14.93596459 21.97139077 14.93596459 21.97139077 11.30859375 14.3359375 C9.18789598 13.40777249 9.18789598 13.40777249 6 13 C5.67 15.64 5.34 18.28 5 21 C4.34 21 3.68 21 3 21 C3 20.01 3 19.02 3 18 C2.34 17.67 1.68 17.34 1 17 C-1.12786239 14.87213761 -0.84548086 10.90595682 -1 8 C-0.81179252 5.2870581 -0.4323156 2.68996375 0 0 Z " fill="#3405DF" transform="translate(66,104)"/>
<path d="M0 0 C-3.00617269 3.00617269 -5.82381598 2.59585316 -10 3 C-9.34 3.33 -8.68 3.66 -8 4 C-8 4.99 -8 5.98 -8 7 C-7.01 6.67 -6.02 6.34 -5 6 C-5 6.66 -5 7.32 -5 8 C-7.475 7.505 -7.475 7.505 -10 7 C-10.88935377 10.303314 -11.46274105 13.62294375 -12 17 C-14.31 17.33 -16.62 17.66 -19 18 C-19 18.99 -19 19.98 -19 21 C-19.7425 20.7525 -20.485 20.505 -21.25 20.25 C-22.1575 20.1675 -23.065 20.085 -24 20 C-24.61875 20.61875 -25.2375 21.2375 -25.875 21.875 C-28.72500302 24.72500302 -31.0895346 24.5573058 -35 25 C-35.33 25.66 -35.66 26.32 -36 27 C-36.495 24.525 -36.495 24.525 -37 22 C-37.66 22 -38.32 22 -39 22 C-39.474375 22.804375 -39.94875 23.60875 -40.4375 24.4375 C-42 27 -42 27 -45 28 C-47.26171875 27.87890625 -47.26171875 27.87890625 -49.6875 27.5625 C-50.49574219 27.46066406 -51.30398437 27.35882813 -52.13671875 27.25390625 C-52.75160156 27.17011719 -53.36648437 27.08632812 -54 27 C-54 26.01 -54 25.02 -54 24 C-55.43750191 22.31201173 -55.43750191 22.31201173 -57 21 C-56.34 21 -55.68 21 -55 21 C-53.515 15.555 -53.515 15.555 -52 10 C-50.35 10 -48.7 10 -47 10 C-46.67 9.34 -46.34 8.68 -46 8 C-44.68 8.33 -43.36 8.66 -42 9 C-41.67 8.34 -41.34 7.68 -41 7 C-40.01 7 -39.02 7 -38 7 C-37.67 7.99 -37.34 8.98 -37 10 C-34.36 9.01 -31.72 8.02 -29 7 C-29.33 6.34 -29.66 5.68 -30 5 C-29.67 4.34 -29.34 3.68 -29 3 C-27.7934375 3.0309375 -27.7934375 3.0309375 -26.5625 3.0625 C-24.06645115 3.29633621 -24.06645115 3.29633621 -23 2 C-24.32 1.34 -25.64 0.68 -27 0 C-23.62554272 -0.19825948 -20.25043278 -0.38167324 -16.875 -0.5625 C-15.44800781 -0.64661133 -15.44800781 -0.64661133 -13.9921875 -0.73242188 C-9.16209924 -0.98398897 -4.75809383 -1.08138496 0 0 Z " fill="#F2F3F6" transform="translate(131,172)"/>
<path d="M0 0 C1.93786085 0.47770523 3.87527674 0.95721571 5.8125 1.4375 C6.89144531 1.70433594 7.97039063 1.97117188 9.08203125 2.24609375 C11.0740843 2.76077412 13.04811524 3.34937175 15 4 C15.66 3.67 16.32 3.34 17 3 C20.5 2.8125 20.5 2.8125 24 3 C24.66 3.66 25.32 4.32 26 5 C25.9375 8.4375 25.9375 8.4375 25 12 C22.12075508 14.34885769 20.72527067 15 17 15 C17 15.66 17 16.32 17 17 C12.58937864 18.0257259 10.07369424 18.03684712 6 16 C5.67 16.66 5.34 17.32 5 18 C4.34 17.01 3.68 16.02 3 15 C2.01 16.32 1.02 17.64 0 19 C-5.75 18.25 -5.75 18.25 -8 16 C-8.99 16.99 -9.98 17.98 -11 19 C-10.34 19.66 -9.68 20.32 -9 21 C-10.98 21 -12.96 21 -15 21 C-14.34 19.68 -13.68 18.36 -13 17 C-14.65 16.67 -16.3 16.34 -18 16 C-18 15.67 -18 15.34 -18 15 C-20.64 14.67 -23.28 14.34 -26 14 C-25.67 10.37 -25.34 6.74 -25 3 C-21.04 3 -17.08 3 -13 3 C-12.67 2.34 -12.34 1.68 -12 1 C-8.66666667 1 -5.33333333 1 -2 1 C-2 1.99 -2 2.98 -2 4 C-1.34 3.67 -0.68 3.34 0 3 C0 2.01 0 1.02 0 0 Z " fill="#F6F8F3" transform="translate(50,179)"/>
<path d="M0 0 C2.50589407 2.42505878 4.86209988 4.83348882 7.08984375 7.5234375 C7.84394531 8.42320313 8.59804688 9.32296875 9.375 10.25 C10.08398438 11.12140625 10.79296875 11.9928125 11.5234375 12.890625 C14.66746712 15.56850511 16.96416308 15.45006178 21 16 C23.78125 17.96875 23.78125 17.96875 26.5 20.5 C31.70481518 25.17022524 37.21071305 28.75656184 43.27539062 32.21875 C44.86188672 33.12579384 46.43275637 34.06008203 48 35 C48 35.33 48 35.66 48 36 C41.57698012 36.95015087 35.30106463 37.18314233 28.8125 37.1875 C27.84119141 37.19974609 26.86988281 37.21199219 25.86914062 37.22460938 C24.92876953 37.22654297 23.98839844 37.22847656 23.01953125 37.23046875 C22.17495361 37.23457764 21.33037598 37.23868652 20.46020508 37.24291992 C16.4101781 36.84302146 13.74440568 35.89142967 11.12109375 32.75 C5.02601026 22.79422558 -0.59986783 11.99735669 0 0 Z " fill="#8D0B12" transform="translate(45,111)"/>
<path d="M0 0 C0 7.03170429 -7.31314288 15.10010392 -12 20 C-17.83666481 25.53494774 -23.85696747 29.75291736 -31 33.375 C-31.62753174 33.69645996 -32.25506348 34.01791992 -32.90161133 34.34912109 C-42.89781452 39.18438688 -52.40641031 40.46981731 -63.4375 40.3125 C-64.59443359 40.31572266 -65.75136719 40.31894531 -66.94335938 40.32226562 C-76.20748367 40.26312148 -76.20748367 40.26312148 -80 38 C-78.81470703 37.97873047 -78.81470703 37.97873047 -77.60546875 37.95703125 C-70.11899496 37.64046036 -63.29180134 36.54231495 -56.0625 34.625 C-54.87466919 34.31139526 -54.87466919 34.31139526 -53.6628418 33.99145508 C-48.91060493 32.67798752 -44.48693394 31.04331745 -40 29 C-41.98 28.67 -43.96 28.34 -46 28 C-43 26 -43 26 -39.5 24.3125 C-31.74078148 20.47568055 -24.50799277 15.71137355 -17.94921875 10.06640625 C-16 9 -16 9 -13.10546875 9.12109375 C-8.9090431 8.95745954 -7.58998338 7.3848487 -4.625 4.5 C-3.75101562 3.6646875 -2.87703125 2.829375 -1.9765625 1.96875 C-1.32429688 1.3190625 -0.67203125 0.669375 0 0 Z " fill="#06099B" transform="translate(175,132)"/>
<path d="M0 0 C0.33 0 0.66 0 1 0 C1.05900769 4.66816367 1.04041776 9.33174903 1 14 C1.0309375 14.77859375 1.061875 15.5571875 1.09375 16.359375 C0.97926858 23.2855009 -4.42955113 27.45776377 -9 32 C-9.7528125 32.78890625 -10.505625 33.5778125 -11.28125 34.390625 C-16.16256245 39.44381465 -21.34202587 43.84011831 -27 48 C-28.32 47.34 -29.64 46.68 -31 46 C-30.34 46 -29.68 46 -29 46 C-28.67 45.01 -28.34 44.02 -28 43 C-25.33862801 40.61877243 -23.4032423 39.1344141 -20 38 C-20.48484276 33.35413108 -20.48484276 33.35413108 -22 29 C-21.34 29 -20.68 29 -20 29 C-20.33 28.34 -20.66 27.68 -21 27 C-21.66 27.33 -22.32 27.66 -23 28 C-23.66 27.34 -24.32 26.68 -25 26 C-24.28714844 25.3709375 -23.57429687 24.741875 -22.83984375 24.09375 C-17.16187254 19.01949309 -11.87767643 13.85787935 -7 8 C-5.71303874 6.49596094 -4.42143211 4.9958832 -3.125 3.5 C-2.55007812 2.8296875 -1.97515625 2.159375 -1.3828125 1.46875 C-0.92648438 0.9840625 -0.47015625 0.499375 0 0 Z " fill="#B1100F" transform="translate(181,98)"/>
<path d="M0 0 C0.99 0.33 1.98 0.66 3 1 C2.34 1.556875 1.68 2.11375 1 2.6875 C-1.25492211 4.84062308 -1.25492211 4.84062308 -1.25 7.75 C-1.1675 8.4925 -1.085 9.235 -1 10 C-2.03125 10.020625 -3.0625 10.04125 -4.125 10.0625 C-8.77078292 11.18647974 -9.97279334 12.70883055 -12.73828125 16.40625 C-14 18 -14 18 -16 19 C-16.65772428 22.02934491 -16.65772428 22.02934491 -17 25 C-13.23699626 26.25433458 -9.72789091 26.10695422 -5.8125 26.0625 C-5.06291016 26.05798828 -4.31332031 26.05347656 -3.54101562 26.04882812 C-1.69397617 26.03706354 0.15302213 26.01912865 2 26 C2.99 24.02 3.98 22.04 5 20 C6.32 20 7.64 20 9 20 C9.495 22.475 9.495 22.475 10 25 C-3.43438667 33.90529757 -3.43438667 33.90529757 -8.375 33 C-10.4453125 32.24609375 -10.4453125 32.24609375 -13 31 C-13.61198242 30.71398926 -14.22396484 30.42797852 -14.85449219 30.13330078 C-21.40843629 27.05988652 -27.83898016 23.80884754 -34 20 C-31.28870825 16.60834665 -27.5935362 15.43962727 -23.6875 13.875 C-15.62489655 10.51535077 -6.26788985 6.26788985 0 0 Z " fill="#FC5104" transform="translate(137,102)"/>
<path d="M0 0 C0.99 0 1.98 0 3 0 C3 1.65 3 3.3 3 5 C3.33 5 3.66 5 4 5 C4 6.65 4 8.3 4 10 C6.32809543 10.68473395 8.66237777 11.34853151 11 12 C11.804375 12.309375 12.60875 12.61875 13.4375 12.9375 C17.67211178 13.04078321 20.65017989 10.40222831 24 8 C25.65 9.32 27.3 10.64 29 12 C28.67 12.99 28.34 13.98 28 15 C26.9275 14.814375 25.855 14.62875 24.75 14.4375 C21.48053594 14.05606253 20.00672022 14.10197515 17 15 C17.144375 15.845625 17.28875 16.69125 17.4375 17.5625 C18.45653267 23.78992186 19.2474335 29.69044585 19 36 C20.38333333 34.81666667 20.38333333 34.81666667 20.5 31.5 C21 28 21 28 22 27 C23.51928038 26.92820036 25.04167482 26.91607993 26.5625 26.9375 C27.38878906 26.94652344 28.21507813 26.95554688 29.06640625 26.96484375 C30.02353516 26.98224609 30.02353516 26.98224609 31 27 C31 28.65 31 30.3 31 32 C30.34 32 29.68 32 29 32 C28.690625 32.94875 28.38125 33.8975 28.0625 34.875 C27 38 27 38 26 40 C26.66 40.33 27.32 40.66 28 41 C23.09530426 41.58237575 20.6335159 39.77521997 16.6875 37 C15.61886719 36.2575 14.55023438 35.515 13.44921875 34.75 C12.64097656 34.1725 11.83273438 33.595 11 33 C12.32 32.34 13.64 31.68 15 31 C14.93596459 21.97139077 14.93596459 21.97139077 11.30859375 14.3359375 C9.18789598 13.40777249 9.18789598 13.40777249 6 13 C5.67 15.64 5.34 18.28 5 21 C4.34 21 3.68 21 3 21 C3 20.01 3 19.02 3 18 C2.34 17.67 1.68 17.34 1 17 C-1.12786239 14.87213761 -0.84548086 10.90595682 -1 8 C-0.81179252 5.2870581 -0.4323156 2.68996375 0 0 Z " fill="#360EE2" transform="translate(66,104)"/>
<path d="M0 0 C2.00720923 0.28674418 4.0085944 0.61866701 6 1 C6 2.98 6 4.96 6 7 C6.66 5.35 7.32 3.7 8 2 C14.15234375 1.90234375 14.15234375 1.90234375 16 2 C17 3 17 3 17.0625 5.5625 C17.041875 6.366875 17.02125 7.17125 17 8 C16.34 8.33 15.68 8.66 15 9 C14.34 8.34 13.68 7.68 13 7 C13 6.34 13 5.68 13 5 C12.34 4.67 11.68 4.34 11 4 C10.67 5.32 10.34 6.64 10 8 C11.32 8.66 12.64 9.32 14 10 C12.68 10 11.36 10 10 10 C9.67 11.65 9.34 13.3 9 15 C6.03 14.67 3.06 14.34 0 14 C-0.33 14.66 -0.66 15.32 -1 16 C-1.33 15.34 -1.66 14.68 -2 14 C-8.12596734 13.65862289 -8.12596734 13.65862289 -14 15 C-14.33 15.99 -14.66 16.98 -15 18 C-15.66 17.67 -16.32 17.34 -17 17 C-16.01 15.515 -16.01 15.515 -15 14 C-15.33 13.67 -15.66 13.34 -16 13 C-15.90997602 10.97591245 -15.75358962 8.95455713 -15.5625 6.9375 C-15.46066406 5.83277344 -15.35882813 4.72804687 -15.25390625 3.58984375 C-15.17011719 2.73519531 -15.08632812 1.88054687 -15 1 C-11.7 1 -8.4 1 -5 1 C-5 2.32 -5 3.64 -5 5 C-4.0409375 5.2165625 -4.0409375 5.2165625 -3.0625 5.4375 C-1 6 -1 6 0 7 C-0.185625 6.030625 -0.37125 5.06125 -0.5625 4.0625 C-0.706875 3.051875 -0.85125 2.04125 -1 1 C-0.67 0.67 -0.34 0.34 0 0 Z " fill="#E4E7EF" transform="translate(137,180)"/>
<path d="M0 0 C1.98567708 0.29296875 3.97135417 0.5859375 5.95703125 0.87890625 C8.2025342 1.13904799 8.2025342 1.13904799 11 0 C12.39439664 -0.06665376 13.79169875 -0.08538199 15.1875 -0.0625 C17.0746875 -0.0315625 17.0746875 -0.0315625 19 0 C18.67 0.99 18.34 1.98 18 3 C15.525 2.505 15.525 2.505 13 2 C13 2.66 13 3.32 13 4 C15.97 4.495 15.97 4.495 19 5 C19 7.64 19 10.28 19 13 C17.02 13 15.04 13 13 13 C12.67 13.99 12.34 14.98 12 16 C5.96293317 18.69741284 1.25532802 17.6362025 -5 16 C-3.68 15.34 -2.36 14.68 -1 14 C-2 11.5 -2 11.5 -6 10 C-4.02 6.7 -2.04 3.4 0 0 Z " fill="#F7F7FA" transform="translate(179,182)"/>
<path d="M0 0 C0.66 -0.33 1.32 -0.66 2 -1 C5.5 -1.1875 5.5 -1.1875 9 -1 C9.66 -0.34 10.32 0.32 11 1 C10.9375 4.4375 10.9375 4.4375 10 8 C7.12075508 10.34885769 5.72527067 11 2 11 C2 11.66 2 12.32 2 13 C-2.41062136 14.0257259 -4.92630576 14.03684712 -9 12 C-9.33 12.66 -9.66 13.32 -10 14 C-10.28875 13.360625 -10.5775 12.72125 -10.875 12.0625 C-11.82823451 9.84793921 -11.82823451 9.84793921 -14 9 C-15.11083574 6.40804994 -15.03277766 5.12515107 -14.3125 2.375 C-13 0 -13 0 -11.25 -1.375 C-7.27307267 -2.47970204 -3.82089447 -1.27363149 0 0 Z " fill="#ECEEF2" transform="translate(65,183)"/>
<path d="M0 0 C4.1738025 1.79778395 7.58631139 4.59352848 11.1875 7.3125 C16.59963937 11.34941824 21.96674561 14.93044952 28 18 C28 18.33 28 18.66 28 19 C20.02509872 20.32915021 12.05813281 20.08801359 4 20 C4 19.34 4 18.68 4 18 C1.66682784 17.22227595 -0.61435923 16.57584432 -3 16 C-3 16.66 -3 17.32 -3 18 C-3.66 18 -4.32 18 -5 18 C-4.34 16.35 -3.68 14.7 -3 13 C-2.34 13 -1.68 13 -1 13 C-0.67 11.02 -0.34 9.04 0 7 C0.66 7 1.32 7 2 7 C2 6.34 2 5.68 2 5 C1.01 4.67 0.02 4.34 -1 4 C-0.67 2.68 -0.34 1.36 0 0 Z " fill="#B40914" transform="translate(65,128)"/>
<path d="M0 0 C0.495 0.99 0.495 0.99 1 2 C1.66 2.33 2.32 2.66 3 3 C2.67 3.66 2.34 4.32 2 5 C1.34 5 0.68 5 0 5 C0 5.66 0 6.32 0 7 C-1.65 7.33 -3.3 7.66 -5 8 C-5.66 10.64 -6.32 13.28 -7 16 C-8.32 16.33 -9.64 16.66 -11 17 C-11.66 16.01 -12.32 15.02 -13 14 C-15.31 14.33 -17.62 14.66 -20 15 C-20.66 16.98 -21.32 18.96 -22 21 C-24.29842648 20.48923856 -26.32549259 19.86166565 -28.5 18.9375 C-31.17921926 17.76591771 -31.17921926 17.76591771 -35 18 C-35.66 17.67 -36.32 17.34 -37 17 C-37 16.01 -37 15.02 -37 14 C-35.82824219 13.62488281 -34.65648438 13.24976563 -33.44921875 12.86328125 C-25.55238549 10.30307844 -17.84752062 7.69500602 -10.34765625 4.1015625 C-6.96958511 2.51651082 -3.51103815 1.25867406 0 0 Z " fill="#F52109" transform="translate(141,136)"/>
<path d="M0 0 C1 3 1 3 1 5 C1.32205743 7.33491639 1.65458149 9.66842508 2 12 C1.1646875 12.37125 1.1646875 12.37125 0.3125 12.75 C-2.44160479 14.23870529 -4.69174514 15.88409972 -7 18 C-7 18.99 -7 19.98 -7 21 C-9 23.1875 -9 23.1875 -11 25 C-14.21602818 22.63029503 -16.64124592 20.82921605 -18 17 C-18 16.01 -18 15.02 -18 14 C-20.42797311 14 -22.62907005 14.50085685 -25 15 C-23.59128689 12.18257377 -21.7254051 11.67654841 -18.9375 10.25 C-15.23817203 8.29717706 -11.90138577 6.28730897 -8.625 3.6875 C-5.8007881 1.46183507 -3.69554114 0.23097132 0 0 Z " fill="#DA0A09" transform="translate(160,124)"/>
<path d="M0 0 C4.89493865 4.78527607 4.89493865 4.78527607 6 8 C5.625 10.25 5.625 10.25 5 12 C2.69 12 0.38 12 -2 12 C-2.12375 12.94875 -2.2475 13.8975 -2.375 14.875 C-3 18 -3 18 -5 20 C-6.32 20 -7.64 20 -9 20 C-9 19.34 -9 18.68 -9 18 C-9.66 18 -10.32 18 -11 18 C-10.67 20.64 -10.34 23.28 -10 26 C-14.75 28 -14.75 28 -17 28 C-17.99 28.66 -18.98 29.32 -20 30 C-20.66 29.34 -21.32 28.68 -22 28 C-22.66 28.99 -23.32 29.98 -24 31 C-24.66 31 -25.32 31 -26 31 C-26 31.66 -26 32.32 -26 33 C-26.66 33 -27.32 33 -28 33 C-26.63287354 29.91426055 -25.09647897 27.88561305 -22.65625 25.56640625 C-21.99109375 24.92316406 -21.3259375 24.27992187 -20.640625 23.6171875 C-19.93421875 22.93914062 -19.2278125 22.26109375 -18.5 21.5625 C-11.60733233 14.83099182 -5.58444163 7.8396969 0 0 Z " fill="#A20D08" transform="translate(170,68)"/>
<path d="M0 0 C1.6510403 0.39553053 3.2958515 0.81713897 4.9375 1.25 C5.85402344 1.48203125 6.77054688 1.7140625 7.71484375 1.953125 C10 3 10 3 10.87890625 4.984375 C11 7 11 7 10 9 C10.66 9 11.32 9 12 9 C12 8.34 12 7.68 12 7 C12.66 7 13.32 7 14 7 C14 8.32 14 9.64 14 11 C8.06295096 13.68308947 2.0517737 15.64839608 -4.25 17.25 C-4.92289063 17.42499023 -5.59578125 17.59998047 -6.2890625 17.78027344 C-10.98576693 18.93356499 -15.51792825 20.02580087 -20.1171875 18.125 C-21.74479167 17.08333333 -23.37239583 16.04166667 -25 15 C-25 14.67 -25 14.34 -25 14 C-23.67935547 14.03480469 -23.67935547 14.03480469 -22.33203125 14.0703125 C-20.58986328 14.09738281 -20.58986328 14.09738281 -18.8125 14.125 C-17.66394531 14.14820313 -16.51539062 14.17140625 -15.33203125 14.1953125 C-12.08259628 14.00484152 -9.91339479 13.39360127 -7 12 C-7 12.66 -7 13.32 -7 14 C-6.01 14 -5.02 14 -4 14 C-2.89688912 10.69066736 -3.03733567 8.36137553 -3.2578125 4.9375 C-2.92289751 2.4205631 -1.90620818 1.5968236 0 0 Z " fill="#3B0CD9" transform="translate(110,133)"/>
<path d="M0 0 C0.99 0.66 1.98 1.32 3 2 C2.125 5.875 2.125 5.875 1 7 C1 8.0725 1 9.145 1 10.25 C1 16.23076923 1 16.23076923 0 19 C-2.39299572 21.24343348 -4.03479071 22.01778443 -7.33203125 21.95703125 C-9.57464397 21.71334577 -11.78058736 21.4013317 -14 21 C-14 20.01 -14 19.02 -14 18 C-15.43750191 16.31201173 -15.43750191 16.31201173 -17 15 C-16.34 15 -15.68 15 -15 15 C-14.01 11.37 -13.02 7.74 -12 4 C-10.35 4 -8.7 4 -7 4 C-6.67 3.34 -6.34 2.68 -6 2 C-4.68 2.33 -3.36 2.66 -2 3 C-1.67 2.34 -1.34 1.68 -1 1 C-0.67 0.67 -0.34 0.34 0 0 Z " fill="#FAFBF7" transform="translate(91,178)"/>
<path d="M0 0 C0.72445312 0.20496094 1.44890625 0.40992188 2.1953125 0.62109375 C10.74774878 3.65653591 10.74774878 3.65653591 19.3125 3.0625 C23.18794982 1.53034542 26.88189027 1.8385055 31 2 C28.34048314 5.37857142 24.82761355 6.32451344 20.875 7.5625 C20.19920898 7.77865967 19.52341797 7.99481934 18.82714844 8.2175293 C9.89677973 11.02993219 2.38723561 12.31583223 -7 12 C-7.33 11.34 -7.66 10.68 -8 10 C-7.67 9.34 -7.34 8.68 -7 8 C-6.34 8 -5.68 8 -5 8 C-5 6.68 -5 5.36 -5 4 C-5.99 4.495 -5.99 4.495 -7 5 C-7 5.66 -7 6.32 -7 7 C-7.66 7 -8.32 7 -9 7 C-9 5.68 -9 4.36 -9 3 C-6.10765685 2.17361624 -4.11257569 2 -1 2 C-0.67 1.34 -0.34 0.68 0 0 Z " fill="#4A15DB" transform="translate(105,158)"/>
<path d="M0 0 C2.475 0.495 2.475 0.495 5 1 C4.0409375 1.928125 4.0409375 1.928125 3.0625 2.875 C-2.09222502 8.02972502 -7.03269803 13.47534294 -11.5625 19.1875 C-19.22387939 28.02755315 -29.32689651 34.55126434 -39 41 C-42.1875 40.625 -42.1875 40.625 -45 40 C-45 39.34 -45 38.68 -45 38 C-44.11699219 37.52691406 -43.23398438 37.05382812 -42.32421875 36.56640625 C-34.15527401 32.10094528 -27.01298071 27.17481811 -20 21 C-19.15824219 20.29101562 -18.31648438 19.58203125 -17.44921875 18.8515625 C-10.84433647 13.16088632 -5.40711059 6.79915395 0 0 Z " fill="#F6EDE9" transform="translate(178,96)"/>
<path d="M0 0 C0.75410156 0.02578125 1.50820312 0.0515625 2.28515625 0.078125 C4.70480379 0.27712405 7.02346996 0.64315354 9.375 1.25 C6.16337835 3.93025846 2.96814871 5.34845542 -0.9375 6.8125 C-2.57138672 7.43318359 -2.57138672 7.43318359 -4.23828125 8.06640625 C-5.35589844 8.45699219 -6.47351563 8.84757813 -7.625 9.25 C-8.6459375 9.62511719 -9.666875 10.00023437 -10.71875 10.38671875 C-16.26572788 11.92125161 -22.10785509 11.53792562 -27.8125 11.5 C-29.5749707 11.51160156 -29.5749707 11.51160156 -31.37304688 11.5234375 C-32.50162109 11.52085937 -33.63019531 11.51828125 -34.79296875 11.515625 C-35.81672607 11.51336914 -36.8404834 11.51111328 -37.89526367 11.50878906 C-40.63545759 11.24900858 -42.28634534 10.6561951 -44.625 9.25 C-43.83480469 9.23582031 -43.04460937 9.22164062 -42.23046875 9.20703125 C-34.74399496 8.89046036 -27.91680134 7.79231495 -20.6875 5.875 C-19.89561279 5.66593018 -19.10372559 5.45686035 -18.2878418 5.24145508 C-14.68058544 4.24444792 -11.25857115 3.14764852 -7.84765625 1.6015625 C-4.88890114 0.36067854 -3.14597358 -0.11439904 0 0 Z " fill="#CE110F" transform="translate(139.625,160.75)"/>
<path d="M0 0 C0.33 0.66 0.66 1.32 1 2 C3.58605332 2.4683265 3.58605332 2.4683265 6.5625 2.625 C8.08037109 2.73714844 8.08037109 2.73714844 9.62890625 2.8515625 C10.80259766 2.92503906 10.80259766 2.92503906 12 3 C12.22384382 4.72722728 12.42839969 6.45696007 12.625 8.1875 C12.79902344 9.63189453 12.79902344 9.63189453 12.9765625 11.10546875 C13.00813265 15.00438191 12.4244178 17.52017662 9.66308594 20.38891602 C8.00417643 21.88015898 6.3014865 23.29060921 4.5625 24.6875 C3.97662109 25.17283203 3.39074219 25.65816406 2.78710938 26.15820312 C-4.31168103 32 -4.31168103 32 -8 32 C-6.41244952 27.82898227 -3.32557564 25.31257615 -0.0625 22.4375 C3.94350461 18.90136349 3.94350461 18.90136349 7.75390625 15.16015625 C9 14 9 14 11 14 C11 10.7 11 7.4 11 4 C7.7 4.33 4.4 4.66 1 5 C0.78214844 5.65355469 0.56429687 6.30710937 0.33984375 6.98046875 C-1.47919021 11.07992429 -3.90736513 14.62120806 -6.4375 18.3125 C-6.92798828 19.05306641 -7.41847656 19.79363281 -7.92382812 20.55664062 C-8.40142578 21.25595703 -8.87902344 21.95527344 -9.37109375 22.67578125 C-9.80349365 23.31427002 -10.23589355 23.95275879 -10.68139648 24.6105957 C-11.33410522 25.29835083 -11.33410522 25.29835083 -12 26 C-12.99 26 -13.98 26 -15 26 C-13.4902946 21.80113185 -11.368251 18.13331136 -9 14.375 C-8.64421875 13.80265625 -8.2884375 13.2303125 -7.921875 12.640625 C-6.31793978 10.06714685 -4.68218226 7.52327339 -3 5 C-3.99 4.67 -4.98 4.34 -6 4 C-5.67 3.01 -5.34 2.02 -5 1 C-3.35 0.67 -1.7 0.34 0 0 Z " fill="#FAF8EE" transform="translate(143,64)"/>
<path d="M0 0 C3.99996286 1.33332095 4.83782337 3.4957827 7 7 C7.33 5.68 7.66 4.36 8 3 C9.32 3 10.64 3 12 3 C11.85892253 4.45880109 11.71197585 5.91703551 11.5625 7.375 C11.48128906 8.18710938 11.40007812 8.99921875 11.31640625 9.8359375 C11 12 11 12 10 14 C8.125 13.6875 8.125 13.6875 6 13 C5.34 12.01 4.68 11.02 4 10 C3.34 12.31 2.68 14.62 2 17 C1.34 17 0.68 17 0 17 C-0.33 17.33 -0.66 17.66 -1 18 C-2 19 -3 20 -4 21 C-5.32 20.34 -6.64 19.68 -8 19 C-7.34 18.34 -6.68 17.68 -6 17 C-6.66 16.34 -7.32 15.68 -8 15 C-7.5390625 11.9609375 -7.5390625 11.9609375 -6.625 8.375 C-6.32851562 7.18648437 -6.03203125 5.99796875 -5.7265625 4.7734375 C-5.48679688 3.85820312 -5.24703125 2.94296875 -5 2 C-3.68 2 -2.36 2 -1 2 C-0.67 1.34 -0.34 0.68 0 0 Z " fill="#E5E7EE" transform="translate(162,179)"/>
<path d="M0 0 C1.33333333 0.66666667 2.66666667 1.33333333 4 2 C4.6084375 2.2578125 5.216875 2.515625 5.84375 2.78125 C8.61742258 4.34897798 10.53327351 6.34307567 12.75 8.625 C13.54921875 9.44226563 14.3484375 10.25953125 15.171875 11.1015625 C15.77515625 11.72804688 16.3784375 12.35453125 17 13 C14.25286635 16.05237072 12.03618049 18.01079994 8 19 C5.32421875 18.3203125 5.32421875 18.3203125 2.6875 17.125 C1.80449219 16.73570313 0.92148438 16.34640625 0.01171875 15.9453125 C-0.65214844 15.63335937 -1.31601563 15.32140625 -2 15 C-2.05406122 13.06280622 -2.09282025 11.12518079 -2.125 9.1875 C-2.14820312 8.10855469 -2.17140625 7.02960938 -2.1953125 5.91796875 C-2 3 -2 3 0 0 Z " fill="#2C03DE" transform="translate(72,99)"/>
<path d="M0 0 C2.61408184 3.92112276 4.37108141 7.19078499 4 12 C1.51333411 15.85492702 -1.70817891 18.83085547 -5 22 C-6.24476661 23.424013 -7.47560485 24.86040941 -8.6875 26.3125 C-11.54514025 29.60412767 -14.56607156 32.31986073 -18 35 C-19.5 33.625 -19.5 33.625 -21 32 C-21 31.34 -21 30.68 -21 30 C-20.360625 29.87625 -19.72125 29.7525 -19.0625 29.625 C-18.381875 29.41875 -17.70125 29.2125 -17 29 C-16.67 28.34 -16.34 27.68 -16 27 C-16.33 27 -16.66 27 -17 27 C-17 25.35 -17 23.7 -17 22 C-14.36 22 -11.72 22 -9 22 C-9 19.36 -9 16.72 -9 14 C-6.36 14 -3.72 14 -1 14 C-1.01160156 13.24074219 -1.02320313 12.48148438 -1.03515625 11.69921875 C-1.04417969 10.70535156 -1.05320313 9.71148437 -1.0625 8.6875 C-1.07410156 7.70136719 -1.08570313 6.71523437 -1.09765625 5.69921875 C-1 3 -1 3 0 0 Z " fill="#B30F0E" transform="translate(177,82)"/>
<path d="M0 0 C0.33 0 0.66 0 1 0 C1 2.64 1 5.28 1 8 C1.61875 8.309375 2.2375 8.61875 2.875 8.9375 C4.25 9.625 5.625 10.3125 7 11 C7 11.66 7 12.32 7 13 C7.54140625 13.08507812 8.0828125 13.17015625 8.640625 13.2578125 C11.80552778 14.2533945 14.06498708 15.93582401 16.75 17.875 C17.73484375 18.57367188 18.7196875 19.27234375 19.734375 19.9921875 C20.48203125 20.65476562 21.2296875 21.31734375 22 22 C22 22.99 22 23.98 22 25 C21.46375 24.71125 20.9275 24.4225 20.375 24.125 C17.64719516 22.83288192 14.87387282 21.91441408 12 21 C12 21.66 12 22.32 12 23 C12.763125 23.28875 13.52625 23.5775 14.3125 23.875 C17 25 17 25 20 27 C19.67 28.32 19.34 29.64 19 31 C11.50397106 27.64825138 6.53264369 20.60280105 1.625 14.25 C1.19622559 13.69530029 0.76745117 13.14060059 0.32568359 12.5690918 C-1.75364969 9.82415622 -3.60589888 7.15587727 -5 4 C-3.02 4.99 -3.02 4.99 -1 6 C-0.67 4.02 -0.34 2.04 0 0 Z " fill="#FAF7E9" transform="translate(65,75)"/>
<path d="M0 0 C0 2.33333333 0 4.66666667 0 7 C1.4166747 8.7511573 1.4166747 8.7511573 3 10 C-0.75 13.875 -0.75 13.875 -3 15 C-10.0248099 14.79955147 -17.06665833 14.15555695 -24 13 C-21.19701725 11.13134483 -18.3457915 9.69573565 -15.328125 8.21484375 C-11.84968848 6.39975355 -8.53249851 4.33647867 -5.19921875 2.26953125 C-3 1 -3 1 0 0 Z " fill="#170AA6" transform="translate(153,147)"/>
<path d="M0 0 C2.26510339 2.13852409 4.04779168 4.32911607 5.75 6.9375 C6.19859375 7.60652344 6.6471875 8.27554688 7.109375 8.96484375 C8.18726604 11.42791933 7.90922753 12.52180058 7 15 C7.99 15.66 8.98 16.32 10 17 C7.33333333 18.33333333 4.66666667 19.66666667 2 21 C2 20.34 2 19.68 2 19 C1.34 19 0.68 19 0 19 C-0.33 19.66 -0.66 20.32 -1 21 C-1.66 21.33 -2.32 21.66 -3 22 C-3 20.68 -3 19.36 -3 18 C-3.66 18 -4.32 18 -5 18 C-6.13437515 15.1708957 -6.00369234 14.01131716 -5.0390625 11.0546875 C-4.57242188 10.00539063 -4.10578125 8.95609375 -3.625 7.875 C-3.16351563 6.82054688 -2.70203125 5.76609375 -2.2265625 4.6796875 C-1.50759675 3.10895342 -0.7725435 1.545087 0 0 Z " fill="#1E05C6" transform="translate(53,69)"/>
<path d="M0 0 C2.97 1.32 5.94 2.64 9 4 C9.33 8.95 9.66 13.9 10 19 C5 20 5 20 3.05078125 19.25 C-1.54780595 15.94315078 -3.0130078 13.59295581 -4 8 C-3.34 7.34 -2.68 6.68 -2 6 C-2 6.99 -2 7.98 -2 9 C-1.34 9 -0.68 9 0 9 C0 6.03 0 3.06 0 0 Z " fill="#2B03DE" transform="translate(71,116)"/>
<path d="M0 0 C3.96 0 7.92 0 12 0 C11.52389341 4.99911924 9.96837781 7.97832683 7 12 C8.32 12.66 9.64 13.32 11 14 C11 14.66 11 15.32 11 16 C9.865625 16.12375 8.73125 16.2475 7.5625 16.375 C5.7990625 16.684375 5.7990625 16.684375 4 17 C3.67 17.66 3.34 18.32 3 19 C3 18.34 3 17.68 3 17 C2.34 17 1.68 17 1 17 C1 17.66 1 18.32 1 19 C-2.3 18.67 -5.6 18.34 -9 18 C-8.01 17.67 -7.02 17.34 -6 17 C-6.33 16.01 -6.66 15.02 -7 14 C-6.34 14 -5.68 14 -5 14 C-5 14.66 -5 15.32 -5 16 C-4.34 16 -3.68 16 -3 16 C-2.67 13.36 -2.34 10.72 -2 8 C-1.401875 8.639375 -0.80375 9.27875 -0.1875 9.9375 C1.90810337 12.20310389 1.90810337 12.20310389 5 13 C5.06058594 12.37351563 5.12117187 11.74703125 5.18359375 11.1015625 C5.26738281 10.28429687 5.35117188 9.46703125 5.4375 8.625 C5.51871094 7.81289062 5.59992188 7.00078125 5.68359375 6.1640625 C6 4 6 4 7 2 C5.68 2 4.36 2 3 2 C3 3.65 3 5.3 3 7 C1.5 5.75 1.5 5.75 0 4 C0 2.68 0 1.36 0 0 Z " fill="#F7F9F5" transform="translate(167,180)"/>
<path d="M0 0 C0.71285156 0.25394531 1.42570312 0.50789062 2.16015625 0.76953125 C3.34738281 1.1871875 3.34738281 1.1871875 4.55859375 1.61328125 C5.43773438 1.93296875 6.316875 2.25265625 7.22265625 2.58203125 C8.22554687 2.94296875 9.2284375 3.30390625 10.26171875 3.67578125 C12.91827443 4.63680914 15.57163423 5.60586052 18.22265625 6.58203125 C18.22265625 7.57203125 18.22265625 8.56203125 18.22265625 9.58203125 C16.95574118 10.25611433 15.68394876 10.92103622 14.41015625 11.58203125 C13.70246094 11.95328125 12.99476563 12.32453125 12.265625 12.70703125 C10.22265625 13.58203125 10.22265625 13.58203125 7.22265625 13.58203125 C7.22265625 12.59203125 7.22265625 11.60203125 7.22265625 10.58203125 C6.56265625 10.58203125 5.90265625 10.58203125 5.22265625 10.58203125 C5.22265625 11.24203125 5.22265625 11.90203125 5.22265625 12.58203125 C4.56265625 12.58203125 3.90265625 12.58203125 3.22265625 12.58203125 C3.22265625 10.60203125 3.22265625 8.62203125 3.22265625 6.58203125 C2.23265625 6.25203125 1.24265625 5.92203125 0.22265625 5.58203125 C-1.46484375 4.01953125 -1.46484375 4.01953125 -2.77734375 2.58203125 C-3.76734375 3.07703125 -3.76734375 3.07703125 -4.77734375 3.58203125 C-4.44734375 2.59203125 -4.11734375 1.60203125 -3.77734375 0.58203125 C-1.77734375 -0.41796875 -1.77734375 -0.41796875 0 0 Z " fill="#2904D0" transform="translate(116.77734375,129.41796875)"/>
<path d="M0 0 C3.3 0 6.6 0 10 0 C9.67 2.97 9.34 5.94 9 9 C10.65 9 12.3 9 14 9 C13.67 9.99 13.34 10.98 13 12 C9.04 12.66 5.08 13.32 1 14 C0.67 14.99 0.34 15.98 0 17 C-0.66 16.67 -1.32 16.34 -2 16 C-1.34 15.01 -0.68 14.02 0 13 C-0.33 12.67 -0.66 12.34 -1 12 C-0.90997602 9.97591245 -0.75358962 7.95455713 -0.5625 5.9375 C-0.46066406 4.83277344 -0.35882813 3.72804687 -0.25390625 2.58984375 C-0.17011719 1.73519531 -0.08632812 0.88054687 0 0 Z " fill="#D3D7E6" transform="translate(122,181)"/>
<path d="M0 0 C0.99 0.33 1.98 0.66 3 1 C3.33 2.65 3.66 4.3 4 6 C-7.83618313 13.84589095 -7.83618313 13.84589095 -12.6875 14.19140625 C-14.96649773 13.68100572 -16.88712196 12.98962865 -19 12 C-19.69351563 11.72542969 -20.38703125 11.45085937 -21.1015625 11.16796875 C-22.75692186 10.49857044 -24.3828144 9.75698049 -26 9 C-23.08175756 7.33325679 -21.02405621 6.7567992 -17.671875 6.8046875 C-16.47304687 6.81435547 -16.47304687 6.81435547 -15.25 6.82421875 C-14.425 6.84097656 -13.6 6.85773438 -12.75 6.875 C-11.90953125 6.88402344 -11.0690625 6.89304687 -10.203125 6.90234375 C-8.13529396 6.92584183 -6.06761005 6.96171092 -4 7 C-3.525625 6.030625 -3.05125 5.06125 -2.5625 4.0625 C-1 1 -1 1 0 0 Z " fill="#F7290B" transform="translate(143,121)"/>
<path d="M0 0 C2.64 0.33 5.28 0.66 8 1 C8 2.98 8 4.96 8 7 C8.66 7 9.32 7 10 7 C10 7.66 10 8.32 10 9 C10.66 9 11.32 9 12 9 C12.99 10.32 13.98 11.64 15 13 C11.37 13 7.74 13 4 13 C4 12.34 4 11.68 4 11 C1.66682784 10.22227595 -0.61435923 9.57584432 -3 9 C-3 9.66 -3 10.32 -3 11 C-3.66 11 -4.32 11 -5 11 C-4.34 9.35 -3.68 7.7 -3 6 C-2.34 6 -1.68 6 -1 6 C-0.67 4.02 -0.34 2.04 0 0 Z " fill="#A00908" transform="translate(65,135)"/>
<path d="M0 0 C0.66 0.33 1.32 0.66 2 1 C1.67 1.99 1.34 2.98 1 4 C0.01 4 -0.98 4 -2 4 C-2 4.66 -2 5.32 -2 6 C-2.639375 6.103125 -3.27875 6.20625 -3.9375 6.3125 C-4.618125 6.539375 -5.29875 6.76625 -6 7 C-6.33 7.99 -6.66 8.98 -7 10 C-6.01 10 -5.02 10 -4 10 C-4 10.99 -4 11.98 -4 13 C-4.66 13 -5.32 13 -6 13 C-5.67 14.32 -5.34 15.64 -5 17 C-10.31027254 15.53967505 -14.46330032 13.01679014 -19 10 C-15.80579577 6.51228095 -12.21871038 5.0896713 -7.9375 3.25 C-7.20466797 2.92128906 -6.47183594 2.59257813 -5.71679688 2.25390625 C-3.83864013 1.43641654 -1.92109532 0.71074256 0 0 Z " fill="#F76202" transform="translate(122,112)"/>
<path d="M0 0 C0.66 0.66 1.32 1.32 2 2 C1.8125 5.5 1.8125 5.5 1 9 C-2.46923881 11.31282587 -3.92205575 11.42478586 -8 11 C-9.9375 9.875 -9.9375 9.875 -11 8 C-10.875 4.9375 -10.875 4.9375 -10 2 C-6.32653229 -0.44897847 -4.33643601 -0.31537716 0 0 Z " fill="#1C2590" transform="translate(74,182)"/>
<path d="M0 0 C0.33 0.66 0.66 1.32 1 2 C1.61875 2.28875 2.2375 2.5775 2.875 2.875 C5.36796335 4.19480413 6.45147781 5.67721672 8 8 C4.84117171 10.7075671 2.07395267 12.95539675 -2 14 C-4.25 13.5 -4.25 13.5 -6 12 C-7.02699061 8.36603322 -7.23967448 5.58128182 -6 2 C-4.02 2 -2.04 2 0 2 C0 1.34 0 0.68 0 0 Z " fill="#E30604" transform="translate(141,141)"/>
<path d="M0 0 C1 3 1 3 1 5 C1.32205743 7.33491639 1.65458149 9.66842508 2 12 C1.443125 12.2475 0.88625 12.495 0.3125 12.75 C-2.39971127 14.21606015 -4.63587365 16.02989471 -7 18 C-8.43606781 12.90427551 -9.13069439 7.38040924 -6.8125 2.5 C-4.58286148 0.65478191 -2.84809926 0.30790262 0 0 Z " fill="#C60403" transform="translate(160,124)"/>
<path d="M0 0 C3.3 0 6.6 0 10 0 C11.24386556 3.73159669 10.77811718 6.18015204 10 10 C6.57067929 11.71466036 2.78283935 11.05404056 -1 11 C-0.67 7.37 -0.34 3.74 0 0 Z " fill="#0D128B" transform="translate(25,182)"/>
<path d="M0 0 C0.99 0 1.98 0 3 0 C3 1.32 3 2.64 3 4 C3.99 4.66 4.98 5.32 6 6 C6 6.66 6 7.32 6 8 C5.34 8 4.68 8 4 8 C2.70487966 15.31805865 1.62272232 22.5928819 1 30 C0.01 30 -0.98 30 -2 30 C-2.25 4.5 -2.25 4.5 0 0 Z " fill="#FBF8E9" transform="translate(116,56)"/>
<path d="M0 0 C-0.33 0.66 -0.66 1.32 -1 2 C-3.5625 2.625 -3.5625 2.625 -6 3 C-5.01 3.99 -4.02 4.98 -3 6 C-3.66 7.98 -4.32 9.96 -5 12 C-7.29842648 11.48923856 -9.32549259 10.86166565 -11.5 9.9375 C-14.17921926 8.76591771 -14.17921926 8.76591771 -18 9 C-18.66 8.67 -19.32 8.34 -20 8 C-20 7.01 -20 6.02 -20 5 C-17.04575985 3.96703956 -14.08605927 2.95073045 -11.125 1.9375 C-10.28324219 1.64294922 -9.44148438 1.34839844 -8.57421875 1.04492188 C-7.76855469 0.77099609 -6.96289062 0.49707031 -6.1328125 0.21484375 C-5.38918457 -0.04176025 -4.64555664 -0.29836426 -3.87939453 -0.56274414 C-2 -1 -2 -1 0 0 Z " fill="#F32302" transform="translate(124,145)"/>
<path d="M0 0 C3.12400841 1.28368345 4.46528193 3.35748585 6.5234375 6.0078125 C7.30332031 6.99652344 8.08320312 7.98523438 8.88671875 9.00390625 C9.63308594 9.95394531 10.37945312 10.90398437 11.1484375 11.8828125 C13.12495683 14.23772861 15.13482746 16.5594163 17.1484375 18.8828125 C14.47265625 19.2109375 14.47265625 19.2109375 11.1484375 18.8828125 C8.48046875 16.6171875 8.48046875 16.6171875 5.9609375 13.6328125 C5.12175781 12.65828125 4.28257813 11.68375 3.41796875 10.6796875 C1.60658178 8.44741026 -0.1555159 6.20313684 -1.8515625 3.8828125 C-1.8515625 6.1928125 -1.8515625 8.5028125 -1.8515625 10.8828125 C-2.5115625 10.5528125 -3.1715625 10.2228125 -3.8515625 9.8828125 C-3.8515625 6.9128125 -3.8515625 3.9428125 -3.8515625 0.8828125 C-1.8515625 -0.1171875 -1.8515625 -0.1171875 0 0 Z " fill="#EBEBF4" transform="translate(47.8515625,108.1171875)"/>
<path d="M0 0 C0 0.99 0 1.98 0 3 C2.475 3.99 2.475 3.99 5 5 C5.33 4.34 5.66 3.68 6 3 C8.4375 3.6875 8.4375 3.6875 11 5 C11.8125 7.625 11.8125 7.625 12 10 C8.53690981 11.21760043 6.77694761 10.80744321 3.453125 9.34765625 C2.60878906 8.98349609 1.76445313 8.61933594 0.89453125 8.24414062 C0.02183594 7.85419922 -0.85085937 7.46425781 -1.75 7.0625 C-3.08224609 6.48338867 -3.08224609 6.48338867 -4.44140625 5.89257812 C-6.63227396 4.93849057 -8.81795598 3.97405887 -11 3 C-11 2.67 -11 2.34 -11 2 C-3.375 0 -3.375 0 0 0 Z " fill="#D50B0E" transform="translate(104,150)"/>
<path d="M0 0 C4.91580076 4.75722654 9.56977695 9.78797288 14 15 C14 15.33 14 15.66 14 16 C10.37 16.33 6.74 16.66 3 17 C-0.42857143 5.28571429 -0.42857143 5.28571429 0 0 Z " fill="#1D08C9" transform="translate(45,111)"/>
<path d="M0 0 C1.98 0 3.96 0 6 0 C7.76462683 3.08809695 8 4.23312136 8 8 C8.66 8.33 9.32 8.66 10 9 C9.67 9.99 9.34 10.98 9 12 C9.66 12.33 10.32 12.66 11 13 C9.85760183 14.33627775 8.71098945 15.66895388 7.5625 17 C6.92441406 17.7425 6.28632813 18.485 5.62890625 19.25 C5.09136719 19.8275 4.55382812 20.405 4 21 C3.67 21 3.34 21 3 21 C1.875 14.25 1.875 14.25 3 12 C3.04475618 10.50066785 3.0389479 8.99949427 3 7.5 C2.88888889 3.22222222 2.88888889 3.22222222 4 1 C2.68 0.67 1.36 0.34 0 0 Z " fill="#FAFCF5" transform="translate(152,65)"/>
<path d="M0 0 C-0.33 1.32 -0.66 2.64 -1 4 C-0.113125 3.67 0.77375 3.34 1.6875 3 C4.70923347 2.08777857 6.88373706 1.81669042 10 2 C5.09601741 6.90398259 -2.16810922 6.25865321 -8.66210938 6.2734375 C-9.82548828 6.26570312 -10.98886719 6.25796875 -12.1875 6.25 C-13.9499707 6.26160156 -13.9499707 6.26160156 -15.74804688 6.2734375 C-16.87662109 6.27085937 -18.00519531 6.26828125 -19.16796875 6.265625 C-20.19172607 6.26336914 -21.2154834 6.26111328 -22.27026367 6.25878906 C-25.01045759 5.99900858 -26.66134534 5.4061951 -29 4 C-28.12859375 3.96261719 -27.2571875 3.92523438 -26.359375 3.88671875 C-19.10156083 3.48612511 -12.42439164 2.60040305 -5.42578125 0.62109375 C-3 0 -3 0 0 0 Z " fill="#A70F27" transform="translate(124,166)"/>
<path d="M0 0 C1.32 0 2.64 0 4 0 C4.66 1.32 5.32 2.64 6 4 C6.33 2.68 6.66 1.36 7 0 C8.32 0 9.64 0 11 0 C10.85892253 1.45880109 10.71197585 2.91703551 10.5625 4.375 C10.48128906 5.18710938 10.40007812 5.99921875 10.31640625 6.8359375 C10 9 10 9 9 11 C7.125 10.6875 7.125 10.6875 5 10 C4.34 9.01 3.68 8.02 3 7 C2.67 8.32 2.34 9.64 2 11 C0.68 11 -0.64 11 -2 11 C-1.125 3.375 -1.125 3.375 0 0 Z " fill="#0E1B8E" transform="translate(163,182)"/>
<path d="M0 0 C0.99 0 1.98 0 3 0 C4.48403112 6.09556586 5.02179524 10.74150416 4 17 C4.66 17.99 5.32 18.98 6 20 C5.01 20.33 4.02 20.66 3 21 C0.59496936 18.94692506 -0.65593619 17.80304758 -2 15 C-2.22101996 10.0718523 -2.24222374 4.48444749 0 0 Z " fill="#1706CA" transform="translate(46,88)"/>
<path d="M0 0 C1.32 0 2.64 0 4 0 C4.66 1.32 5.32 2.64 6 4 C6.33 2.68 6.66 1.36 7 0 C8.32 0 9.64 0 11 0 C10.34 3.63 9.68 7.26 9 11 C5 10 5 10 3 7 C2.67 8.32 2.34 9.64 2 11 C0.68 11 -0.64 11 -2 11 C-1.34 7.37 -0.68 3.74 0 0 Z " fill="#0E1A90" transform="translate(79,182)"/>
<path d="M0 0 C0.99 0.33 1.98 0.66 3 1 C4.1875 4.0625 4.1875 4.0625 5 7 C3.75 8.5 3.75 8.5 2 10 C0.68 10 -0.64 10 -2 10 C-2.99 10.66 -3.98 11.32 -5 12 C-5.66 11.34 -6.32 10.68 -7 10 C-7.99 11.485 -7.99 11.485 -9 13 C-9.66 13 -10.32 13 -11 13 C-11 13.66 -11 14.32 -11 15 C-11.66 15 -12.32 15 -13 15 C-11.38989473 10.92623969 -8.46177729 8.23492931 -5.375 5.25 C-4.859375 4.74339844 -4.34375 4.23679687 -3.8125 3.71484375 C-2.54616661 2.47196098 -1.2736856 1.23534724 0 0 Z " fill="#BB0D0B" transform="translate(155,86)"/>
<path d="M0 0 C0.33 0.99 0.66 1.98 1 3 C1.99 3 2.98 3 4 3 C3.67 5.31 3.34 7.62 3 10 C1.73392393 10.53229326 0.46189588 11.05044544 -0.8125 11.5625 C-1.52019531 11.85253906 -2.22789062 12.14257812 -2.95703125 12.44140625 C-5 13 -5 13 -8 12 C-9 10.3125 -9 10.3125 -9 8 C-6.42143673 4.31633819 -4.3124594 1.59720719 0 0 Z " fill="#A90F0A" transform="translate(173,109)"/>
<path d="M0 0 C2.31 0 4.62 0 7 0 C5.02 0.99 5.02 0.99 3 2 C3.495 2.61875 3.99 3.2375 4.5 3.875 C6 6 6 6 6 8 C6.66 8 7.32 8 8 8 C9.7265625 9.828125 9.7265625 9.828125 11.625 12.25 C12.57246094 13.43335937 12.57246094 13.43335937 13.5390625 14.640625 C15 17 15 17 15 21 C14.34 21 13.68 21 13 21 C11.50370821 19.3214487 10.07707339 17.58041102 8.6875 15.8125 C6.29902741 12.7833166 3.9640178 9.96472235 1.20703125 7.26171875 C-1 5 -1 5 -1 3 C-1.99 2.67 -2.98 2.34 -4 2 C-3.34 1.67 -2.68 1.34 -2 1 C-1.34 1.33 -0.68 1.66 0 2 C0 1.34 0 0.68 0 0 Z " fill="#FCF4E3" transform="translate(78,72)"/>
<path d="M0 0 C2.97 0 5.94 0 9 0 C9.6875 2.3125 9.6875 2.3125 10 5 C8.875 6.8125 8.875 6.8125 7 8 C4.3125 8.1875 4.3125 8.1875 2 8 C2 8.99 2 9.98 2 11 C1.01 11 0.02 11 -1 11 C-0.67 7.37 -0.34 3.74 0 0 Z " fill="#09128C" transform="translate(110,182)"/>
<path d="M0 0 C1.65 0.33 3.3 0.66 5 1 C5.66 4.3 6.32 7.6 7 11 C5.68 11 4.36 11 3 11 C3 10.34 3 9.68 3 9 C0.03 9.66 -2.94 10.32 -6 11 C-4.54955729 6.89041233 -2.48889248 3.56741255 0 0 Z " fill="#0B1288" transform="translate(42,182)"/>
<path d="M0 0 C0.75667969 0.103125 1.51335937 0.20625 2.29296875 0.3125 C3.48584286 4.18934087 4.29296875 7.22871923 4.29296875 11.3125 C3.30296875 11.3125 2.31296875 11.3125 1.29296875 11.3125 C1.29296875 10.6525 1.29296875 9.9925 1.29296875 9.3125 C0.38546875 9.663125 -0.52203125 10.01375 -1.45703125 10.375 C-4.71294438 11.31420571 -5.63453119 11.26764676 -8.70703125 10.3125 C-7.83454697 8.63349246 -6.93316826 6.96947392 -6.01953125 5.3125 C-5.52066406 4.384375 -5.02179688 3.45625 -4.5078125 2.5 C-2.70703125 0.3125 -2.70703125 0.3125 0 0 Z " fill="#232C94" transform="translate(181.70703125,181.6875)"/>
<path d="M0 0 C0 7.10138286 -7.21989704 14.94674829 -12 20 C-12.66 20 -13.32 20 -14 20 C-13.814375 19.38125 -13.62875 18.7625 -13.4375 18.125 C-12.76313824 15.95839822 -12.76313824 15.95839822 -14 14 C-13.01 13.01 -12.02 12.02 -11 11 C-12.98 11 -14.96 11 -17 11 C-16.67 10.34 -16.34 9.68 -16 9 C-15.12085938 9.0928125 -14.24171875 9.185625 -13.3359375 9.28125 C-9.03217522 8.91840353 -7.68319751 7.47554352 -4.625 4.5 C-3.75101563 3.6646875 -2.87703125 2.829375 -1.9765625 1.96875 C-1.32429687 1.3190625 -0.67203125 0.669375 0 0 Z " fill="#171793" transform="translate(175,132)"/>
<path d="M0 0 C0.66 0 1.32 0 2 0 C1.89300781 1.03640625 1.78601562 2.0728125 1.67578125 3.140625 C1.55382035 4.51033973 1.43277455 5.88013616 1.3125 7.25 C1.23966797 7.93191406 1.16683594 8.61382812 1.09179688 9.31640625 C0.81829303 12.63062933 0.75378846 14.58683235 2.48046875 17.484375 C2.98191406 17.98453125 3.48335937 18.4846875 4 19 C3.67 19.66 3.34 20.32 3 21 C2.01 21 1.02 21 0 21 C-0.77321882 23.98241547 -1.41196203 26.97580475 -2 30 C-4.4294516 26.3558226 -4.16179575 24.28758728 -4 20 C-3.34 19.67 -2.68 19.34 -2 19 C-2 17.68 -2 16.36 -2 15 C-2.66 15 -3.32 15 -4 15 C-2.07289294 4.44191344 -2.07289294 4.44191344 0 0 Z " fill="#F9F7F5" transform="translate(44,88)"/>
<path d="M0 0 C0 0.99 0 1.98 0 3 C-1.98 3 -3.96 3 -6 3 C-6.33 4.65 -6.66 6.3 -7 8 C-5.68 8 -4.36 8 -3 8 C-3 7.01 -3 6.02 -3 5 C-2.01 5 -1.02 5 0 5 C0 6.65 0 8.3 0 10 C-3.01324195 11.50662097 -5.68286377 11.17770373 -9 11 C-11 9 -11 9 -11.3125 6.0625 C-11 3 -11 3 -10 1.125 C-6.74686316 -0.70488947 -3.68609891 -0.18128355 0 0 Z " fill="#11198D" transform="translate(102,182)"/>
<path d="M0 0 C-0.33 0.99 -0.66 1.98 -1 3 C-2.65 3 -4.3 3 -6 3 C-6.33 4.32 -6.66 5.64 -7 7 C-6.01 7.33 -5.02 7.66 -4 8 C-4 7.01 -4 6.02 -4 5 C-2.68 5.33 -1.36 5.66 0 6 C-0.375 7.9375 -0.375 7.9375 -1 10 C-3.73905345 11.36952673 -5.97087332 11.12621361 -9 11 C-11 10 -11 10 -11.75 8.25 C-12.08385293 5.2453236 -11.45510229 3.63304225 -10 1 C-6.65921704 -1.62490089 -3.97597936 -0.90363167 0 0 Z " fill="#161C8F" transform="translate(62,182)"/>
<path d="M0 0 C-2.74049786 3.6115088 -6.72383749 4.48595232 -10.875 5.75 C-11.58269531 5.98332031 -12.29039063 6.21664062 -13.01953125 6.45703125 C-17.03178493 7.70478984 -19.95501282 8.30074097 -24 7 C-22.68 6.34 -21.36 5.68 -20 5 C-20.99 4.01 -21.98 3.02 -23 2 C-20 1 -20 1 -17.125 1.5625 C-14.07551602 2.25524961 -14.07551602 2.25524961 -11.6875 1.0625 C-7.81205018 -0.46965458 -4.11810973 -0.1614945 0 0 Z " fill="#3215BB" transform="translate(136,160)"/>
<path d="M0 0 C0.33 0 0.66 0 1 0 C1.6754914 3.54004203 2.33880798 7.08226169 3 10.625 C3.19078125 11.62402344 3.3815625 12.62304688 3.578125 13.65234375 C4.47527136 18.49052593 5.27009288 23.05392418 5 28 C4.01 28 3.02 28 2 28 C1.35216876 25.12543719 0.70667482 22.25038241 0.0625 19.375 C-0.11990234 18.56675781 -0.30230469 17.75851563 -0.49023438 16.92578125 C-1.45044563 12.63101819 -2.33096919 8.35222151 -3 4 C-2.01 4.33 -1.02 4.66 0 5 C0 3.35 0 1.7 0 0 Z " fill="#FBF6E5" transform="translate(102,58)"/>
<path d="M0 0 C0.33 0.66 0.66 1.32 1 2 C3.32156597 2.40729228 5.6568787 2.74438677 8 3 C8.08886184 6.19902639 7.91058531 8.92677456 7 12 C7.66 12.33 8.32 12.66 9 13 C9 16.96 9 20.92 9 25 C8.34 24.34 7.68 23.68 7 23 C7 21.68 7 20.36 7 19 C6.01 19 5.02 19 4 19 C4 18.01 4 17.02 4 16 C3.69567687 14.70119235 3.35986745 13.40952688 3 12.125 C2.18115591 8.99955283 1.79678941 6.25136937 2 3 C1.01 3 0.02 3 -1 3 C-0.67 2.01 -0.34 1.02 0 0 Z " fill="#2610CE" transform="translate(47,85)"/>
<path d="M0 0 C3.19624262 1.53837846 6.21605574 3.28866532 9.25 5.125 C10.14203125 5.66382812 11.0340625 6.20265625 11.953125 6.7578125 C12.96632813 7.37269531 12.96632813 7.37269531 14 8 C13.01 8.33 12.02 8.66 11 9 C11 9.66 11 10.32 11 11 C12.1446875 11.433125 12.1446875 11.433125 13.3125 11.875 C16 13 16 13 19 15 C18.67 16.32 18.34 17.64 18 19 C9.77088523 15.36090258 4.55003058 7.44550458 0 0 Z " fill="#F3D12F" transform="translate(66,87)"/>
<path d="M0 0 C2.631724 2.45627573 4.81527263 4.55352037 6 8 C5.625 10.25 5.625 10.25 5 12 C2.69 12 0.38 12 -2 12 C-3.4606285 9.35261084 -4 8.10551666 -4 5 C-2 2.3125 -2 2.3125 0 0 Z " fill="#A4110B" transform="translate(170,68)"/>
<path d="M0 0 C2.05078125 0.03255208 4.1015625 0.06510417 6.15234375 0.09765625 C5.82234375 1.08765625 5.49234375 2.07765625 5.15234375 3.09765625 C3.50234375 2.76765625 1.85234375 2.43765625 0.15234375 2.09765625 C0.15234375 2.75765625 0.15234375 3.41765625 0.15234375 4.09765625 C3.12234375 4.59265625 3.12234375 4.59265625 6.15234375 5.09765625 C5.77734375 7.53515625 5.77734375 7.53515625 5.15234375 10.09765625 C2.19569856 11.57597885 -0.58995362 11.15798408 -3.84765625 11.09765625 C-3.84765625 10.10765625 -3.84765625 9.11765625 -3.84765625 8.09765625 C-2.19765625 7.76765625 -0.54765625 7.43765625 1.15234375 7.09765625 C-0.16765625 6.76765625 -1.48765625 6.43765625 -2.84765625 6.09765625 C-2.89037725 4.4315372 -2.88829457 2.7638274 -2.84765625 1.09765625 C-1.84765625 0.09765625 -1.84765625 0.09765625 0 0 Z " fill="#0F168A" transform="translate(191.84765625,181.90234375)"/>
<path d="M0 0 C2 3.75 2 3.75 2 6 C0.28667246 7.58533702 -1.49689047 9.09541215 -3.3125 10.5625 C-4.29863281 11.36816406 -5.28476563 12.17382812 -6.30078125 13.00390625 C-9 15 -9 15 -12 16 C-12.99 15.34 -13.98 14.68 -15 14 C-14.33613281 13.40832031 -13.67226562 12.81664062 -12.98828125 12.20703125 C-8.55061038 8.2358017 -4.14213205 4.28020312 0 0 Z " fill="#F1DDDB" transform="translate(175,126)"/>
<path d="M0 0 C0.89460938 0.20496094 1.78921875 0.40992188 2.7109375 0.62109375 C9.80411057 2.20155555 16.74486111 3.51520961 24 4 C24 4.33 24 4.66 24 5 C23.05125 5.12375 22.1025 5.2475 21.125 5.375 C17.91332809 5.71687177 17.91332809 5.71687177 16 8 C16 7.34 16 6.68 16 6 C14.68 6 13.36 6 12 6 C11.34 7.65 10.68 9.3 10 11 C8.68 10.67 7.36 10.34 6 10 C6 9.01 6 8.02 6 7 C6.99 7 7.98 7 9 7 C8.360625 6.896875 7.72125 6.79375 7.0625 6.6875 C6.381875 6.460625 5.70125 6.23375 5 6 C4.67 5.01 4.34 4.02 4 3 C1.98491642 2.26676204 1.98491642 2.26676204 0 2 C0 1.34 0 0.68 0 0 Z " fill="#FBFAF4" transform="translate(90,169)"/>
<path d="M0 0 C0.66 0 1.32 0 2 0 C2.66 0.99 3.32 1.98 4 3 C7.56769552 3.73606499 7.56769552 3.73606499 11 4 C11.33 5.98 11.66 7.96 12 10 C11.34 9.67 10.68 9.34 10 9 C10 8.34 10 7.68 10 7 C9.01 7.495 9.01 7.495 8 8 C8.33 8.99 8.66 9.98 9 11 C9.66 11.33 10.32 11.66 11 12 C9.26953125 12.69140625 9.26953125 12.69140625 7 13 C3.80351156 11.20376862 1.27030725 8.87309354 -1 6 C-1 2.5625 -1 2.5625 0 0 Z " fill="#F7CF21" transform="translate(84,101)"/>
<path d="M0 0 C0.99 0 1.98 0 3 0 C3 1.65 3 3.3 3 5 C3.33 5 3.66 5 4 5 C4.85298376 8.67387495 5.10789471 12.0447393 5.0625 15.8125 C5.05347656 16.78832031 5.04445313 17.76414062 5.03515625 18.76953125 C5.02355469 19.50558594 5.01195313 20.24164063 5 21 C4.34 21 3.68 21 3 21 C3 20.01 3 19.02 3 18 C2.34 17.67 1.68 17.34 1 17 C-1.12786239 14.87213761 -0.84548086 10.90595682 -1 8 C-0.81179252 5.2870581 -0.4323156 2.68996375 0 0 Z " fill="#3717E4" transform="translate(66,104)"/>
<path d="M0 0 C0.35546875 2.109375 0.35546875 2.109375 0 5 C-1.83865285 7.31077902 -3.57445757 9.22861357 -5.6875 11.25 C-6.48317383 12.06210938 -6.48317383 12.06210938 -7.29492188 12.890625 C-10.3692895 15.90840918 -12.51658995 17.70055146 -17 18 C-17 17.34 -17 16.68 -17 16 C-11.58823529 12 -11.58823529 12 -9 12 C-9 11.01 -9 10.02 -9 9 C-9.66 8.67 -10.32 8.34 -11 8 C-9.35653302 6.66375099 -7.71016314 5.33107149 -6.0625 4 C-5.14597656 3.2575 -4.22945312 2.515 -3.28515625 1.75 C-1 0 -1 0 0 0 Z " fill="#F8D228" transform="translate(155,82)"/>
<path d="M0 0 C2.62386487 3.06117568 3 3.73173127 3 8 C2.01 8.495 2.01 8.495 1 9 C1.33 11.31 1.66 13.62 2 16 C2.99 16.33 3.98 16.66 5 17 C4.67 17.66 4.34 18.32 4 19 C3.34 18.67 2.68 18.34 2 18 C2.66 19.98 3.32 21.96 4 24 C-1.875 23.125 -1.875 23.125 -3 22 C-2.38471136 14.61653633 -1.16432952 7.31379806 0 0 Z " fill="#FBF6E1" transform="translate(122,64)"/>
<path d="M0 0 C6.15234375 -0.09765625 6.15234375 -0.09765625 8 0 C9 1 9 1 9.0625 3.5625 C9.041875 4.366875 9.02125 5.17125 9 6 C8.01 6.495 8.01 6.495 7 7 C6.34 6.34 5.68 5.68 5 5 C5 4.34 5 3.68 5 3 C4.34 2.67 3.68 2.34 3 2 C2.67 3.32 2.34 4.64 2 6 C3.32 6.66 4.64 7.32 6 8 C4.68 8 3.36 8 2 8 C2 8.99 2 9.98 2 11 C0.68 11 -0.64 11 -2 11 C-1.85892253 9.54119891 -1.71197585 8.08296449 -1.5625 6.625 C-1.48128906 5.81289062 -1.40007812 5.00078125 -1.31640625 4.1640625 C-1 2 -1 2 0 0 Z " fill="#0B1489" transform="translate(145,182)"/>
<path d="M0 0 C3.96 0 7.92 0 12 0 C11.58221009 5.7097955 9.42453429 8.60957142 6 13 C4.68374806 10.36749612 5.25186342 9.19820944 5.9375 6.375 C6.13214844 5.55773437 6.32679688 4.74046875 6.52734375 3.8984375 C6.68332031 3.27195313 6.83929688 2.64546875 7 2 C5.68 2 4.36 2 3 2 C3 3.65 3 5.3 3 7 C1.5 5.75 1.5 5.75 0 4 C0 2.68 0 1.36 0 0 Z " fill="#E2E5EF" transform="translate(167,180)"/>
<path d="M0 0 C5.41342681 1.14514798 7.9342948 2.34012809 11 7 C9.35 7 7.7 7 6 7 C6.99 7.66 7.98 8.32 9 9 C1.75949367 10.25316456 1.75949367 10.25316456 -2 9 C-2.66 9 -3.32 9 -4 9 C-3.67 7.68 -3.34 6.36 -3 5 C-3 5.66 -3 6.32 -3 7 C-2.01 7 -1.02 7 0 7 C0.33 6.01 0.66 5.02 1 4 C0.34 3.67 -0.32 3.34 -1 3 C-0.67 2.01 -0.34 1.02 0 0 Z " fill="#320DD0" transform="translate(108,159)"/>
<path d="M0 0 C0.99 0.33 1.98 0.66 3 1 C3.33 2.65 3.66 4.3 4 6 C-1.94 9.465 -1.94 9.465 -8 13 C-9.32 11.35 -10.64 9.7 -12 8 C-10.741875 7.95875 -9.48375 7.9175 -8.1875 7.875 C-5.98789562 7.68779168 -5.98789562 7.68779168 -4 7 C-1.97343617 4.11547725 -1.97343617 4.11547725 -1 1 C-0.67 0.67 -0.34 0.34 0 0 Z " fill="#F7190D" transform="translate(143,121)"/>
<path d="M0 0 C0.433125 0.474375 0.86625 0.94875 1.3125 1.4375 C3.02309613 3.23686957 3.02309613 3.23686957 6 4 C4.58707905 8.8274799 2.57025846 12.7162359 0 17 C-0.66 17 -1.32 17 -2 17 C-2.5625 15.0625 -2.5625 15.0625 -3 13 C-2.67 12.67 -2.34 12.34 -2 12 C-1.95907063 9.66702567 -1.95758277 7.33294775 -2 5 C-1.67 5 -1.34 5 -1 5 C-0.67 3.35 -0.34 1.7 0 0 Z " fill="#FCFAEF" transform="translate(127,69)"/>
<path d="M0 0 C0.33 0.66 0.66 1.32 1 2 C1.66 2.33 2.32 2.66 3 3 C2.67 3.66 2.34 4.32 2 5 C1.34 5 0.68 5 0 5 C0 5.66 0 6.32 0 7 C-0.78375 7.061875 -1.5675 7.12375 -2.375 7.1875 C-3.24125 7.455625 -4.1075 7.72375 -5 8 C-6.37466625 10.47636012 -6.37466625 10.47636012 -7 13 C-7.66 13 -8.32 13 -9 13 C-9 12.01 -9 11.02 -9 10 C-9.66 10 -10.32 10 -11 10 C-10.34 8.35 -9.68 6.7 -9 5 C-8.01 5.33 -7.02 5.66 -6 6 C-6 5.01 -6 4.02 -6 3 C-4.02 2.01 -2.04 1.02 0 0 Z " fill="#F41003" transform="translate(141,136)"/>
<path d="M0 0 C2.49361571 1.20381448 4.68143083 2.45428722 7 4 C7 4.66 7 5.32 7 6 C6.05125 6.268125 5.1025 6.53625 4.125 6.8125 C0.74732727 7.74986588 0.74732727 7.74986588 -1 11 C-1 10.01 -1 9.02 -1 8 C-1.66 7.67 -2.32 7.34 -3 7 C-2.34 7 -1.68 7 -1 7 C-1.33 6.34 -1.66 5.68 -2 5 C-2.66 6.98 -3.32 8.96 -4 11 C-4.33 11 -4.66 11 -5 11 C-5.3125 8.3125 -5.3125 8.3125 -5 5 C-2.5 2.125 -2.5 2.125 0 0 Z " fill="#F9D425" transform="translate(108,53)"/>
<path d="M0 0 C1.203125 1.65234375 1.203125 1.65234375 2 4 C0.734375 6.69140625 0.734375 6.69140625 -1.25 9.5625 C-1.89453125 10.51253906 -2.5390625 11.46257812 -3.203125 12.44140625 C-3.79609375 13.28574219 -4.3890625 14.13007812 -5 15 C-5.99 16.485 -5.99 16.485 -7 18 C-7.99 18 -8.98 18 -10 18 C-8.47146065 13.72813475 -6.28490519 10.00673137 -3.875 6.1875 C-3.50246094 5.59001953 -3.12992188 4.99253906 -2.74609375 4.37695312 C-1.8342952 2.91573749 -0.91764024 1.45755415 0 0 Z " fill="#F9F6E6" transform="translate(138,72)"/>
<path d="M0 0 C0.66 0 1.32 0 2 0 C1.6875 3.375 1.6875 3.375 1 7 C-2.45662331 9.30441554 -3.94857881 9.25860135 -8 9 C-8.66 8.67 -9.32 8.34 -10 8 C-10 6.35 -10 4.7 -10 3 C-9.01 2.67 -8.02 2.34 -7 2 C-6.67 2.99 -6.34 3.98 -6 5 C-4.05000871 4.80528889 -4.05000871 4.80528889 -2 4 C-0.71563266 2.0162233 -0.71563266 2.0162233 0 0 Z " fill="#131E92" transform="translate(74,184)"/>
<path d="M0 0 C2.31 0.66 4.62 1.32 7 2 C7 3.98 7 5.96 7 8 C5.25 9.0625 5.25 9.0625 3 10 C1.68 9.67 0.36 9.34 -1 9 C-0.67 6.03 -0.34 3.06 0 0 Z " fill="#464EAA" transform="translate(25,182)"/>
<path d="M0 0 C3.66666667 0 7.33333333 0 11 0 C10.67 0.99 10.34 1.98 10 3 C9.24332031 2.896875 8.48664062 2.79375 7.70703125 2.6875 C4.81953975 2.70351402 4.81953975 2.70351402 3.19921875 5.1875 C2.70035156 6.115625 2.20148437 7.04375 1.6875 8 C0.91986328 9.3921875 0.91986328 9.3921875 0.13671875 10.8125 C-0.23839844 11.534375 -0.61351562 12.25625 -1 13 C-1.99 12.67 -2.98 12.34 -4 12 C-3.34 12 -2.68 12 -2 12 C-2 8.7 -2 5.4 -2 2 C-1.34 2 -0.68 2 0 2 C0 1.34 0 0.68 0 0 Z " fill="#E9EBF2" transform="translate(37,180)"/>
<path d="M0 0 C4.03477342 0.58158896 6.85241201 1.86756059 10.3125 4 C11.19550781 4.53625 12.07851562 5.0725 12.98828125 5.625 C13.65214844 6.07875 14.31601563 6.5325 15 7 C15 7.33 15 7.66 15 8 C9.06 8.495 9.06 8.495 3 9 C2.67 8.01 2.34 7.02 2 6 C2.99 5.01 3.98 4.02 5 3 C4.01 3.33 3.02 3.66 2 4 C1.34 2.68 0.68 1.36 0 0 Z " fill="#CB0B0A" transform="translate(78,139)"/>
<path d="M0 0 C0.99 0.66 1.98 1.32 3 2 C2.21302675 5.41021743 1.12880057 8.68885166 0 12 C-0.66 12 -1.32 12 -2 12 C-2.33 12.99 -2.66 13.98 -3 15 C-2.125 7.375 -2.125 7.375 -1 4 C-2.32 4 -3.64 4 -5 4 C-5 5.65 -5 7.3 -5 9 C-5.99 8.01 -6.98 7.02 -8 6 C-7.34 4.68 -6.68 3.36 -6 2 C-4.68 2.33 -3.36 2.66 -2 3 C-1.67 2.34 -1.34 1.68 -1 1 C-0.67 0.67 -0.34 0.34 0 0 Z " fill="#E4E6F0" transform="translate(91,178)"/>
<path d="M0 0 C1.65 0.33 3.3 0.66 5 1 C5 1.66 5 2.32 5 3 C5.99 3 6.98 3 8 3 C8 3.99 8 4.98 8 6 C7.34 6 6.68 6 6 6 C6.33 7.32 6.66 8.64 7 10 C1.25 8.25 1.25 8.25 -1 6 C-1 3 -1 3 0 0 Z " fill="#FC6208" transform="translate(110,119)"/>
<path d="M0 0 C1.32 0 2.64 0 4 0 C3.67 2.64 3.34 5.28 3 8 C4.65 8 6.3 8 8 8 C7.67 8.99 7.34 9.98 7 11 C4.36 11 1.72 11 -1 11 C-0.67 7.37 -0.34 3.74 0 0 Z " fill="#0B118B" transform="translate(128,182)"/>
<path d="M0 0 C1 3.875 1 3.875 1 5 C-0.98 5 -2.96 5 -5 5 C-5.33 5.99 -5.66 6.98 -6 8 C-11.625 8.25 -11.625 8.25 -15 6 C-15 5.34 -15 4.68 -15 4 C-10.05 3.34 -5.1 2.68 0 2 C0 1.34 0 0.68 0 0 Z " fill="#FBFAF9" transform="translate(197,190)"/>
<path d="M0 0 C1.59134766 -0.02126953 1.59134766 -0.02126953 3.21484375 -0.04296875 C6.0625 0.1875 6.0625 0.1875 9.0625 2.1875 C8.0725 2.1875 7.0825 2.1875 6.0625 2.1875 C5.4025 5.4875 4.7425 8.7875 4.0625 12.1875 C3.4025 12.1875 2.7425 12.1875 2.0625 12.1875 C2.11132812 9.11132812 2.11132812 9.11132812 2.16015625 6.03515625 C2.26811184 4.17017859 2.26811184 4.17017859 1.0625 3.1875 C-0.45678038 3.11570036 -1.97917482 3.10357993 -3.5 3.125 C-4.73943359 3.13853516 -4.73943359 3.13853516 -6.00390625 3.15234375 C-6.96103516 3.16974609 -6.96103516 3.16974609 -7.9375 3.1875 C-7.9375 2.5275 -7.9375 1.8675 -7.9375 1.1875 C-5.2264923 -0.16800385 -3.02410831 0.01832793 0 0 Z " fill="#D2D5E8" transform="translate(72.9375,179.8125)"/>
<path d="M0 0 C6.13053511 -0.32712342 10.62669111 -0.39366878 16 3 C12.44342962 5.37104692 11.19476306 5.48401112 7 5 C4.50081741 3.84575904 2.3294576 2.49085287 0 1 C0 0.67 0 0.34 0 0 Z " fill="#EDC9CF" transform="translate(85,147)"/>
<path d="M0 0 C0.66 0.66 1.32 1.32 2 2 C-1.63 4.97 -5.26 7.94 -9 11 C-10.32 10.34 -11.64 9.68 -13 9 C-12.34 9 -11.68 9 -11 9 C-10.67 8.01 -10.34 7.02 -10 6 C-6.88332834 3.14305098 -3.99415824 1.36942568 0 0 Z " fill="#BE0A13" transform="translate(163,135)"/>
<path d="M0 0 C0.99 0.33 1.98 0.66 3 1 C2.34 1.556875 1.68 2.11375 1 2.6875 C-1.25492211 4.84062308 -1.25492211 4.84062308 -1.25 7.75 C-1.12625 8.86375 -1.12625 8.86375 -1 10 C-3.64 10 -6.28 10 -9 10 C-9 9.01 -9 8.02 -9 7 C-7.13671875 5.140625 -7.13671875 5.140625 -4.6875 3.25 C-3.88699219 2.61578125 -3.08648437 1.9815625 -2.26171875 1.328125 C-1.51535156 0.88984375 -0.76898438 0.4515625 0 0 Z " fill="#F72903" transform="translate(137,102)"/>
<path d="M0 0 C1.98 0.66 3.96 1.32 6 2 C5.35546875 2.23460937 4.7109375 2.46921875 4.046875 2.7109375 C1.7922092 3.81161073 1.7922092 3.81161073 1.390625 6.1640625 C1.34421875 6.97617188 1.2978125 7.78828125 1.25 8.625 C1.19328125 9.44226563 1.1365625 10.25953125 1.078125 11.1015625 C1.05234375 11.72804687 1.0265625 12.35453125 1 13 C1.66 13.33 2.32 13.66 3 14 C1.68 14 0.36 14 -1 14 C-1.66 11.03 -2.32 8.06 -3 5 C-2.01 4.34 -1.02 3.68 0 3 C0 2.01 0 1.02 0 0 Z " fill="#E6E9F0" transform="translate(50,179)"/>
<path d="M0 0 C2.64752004 2.57784846 4.94432065 4.91648098 7 8 C3.37 8.33 -0.26 8.66 -4 9 C-4 8.34 -4 7.68 -4 7 C-3.34 7 -2.68 7 -2 7 C-2 5.02 -2 3.04 -2 1 C-1.34 0.67 -0.68 0.34 0 0 Z " fill="#441ABE" transform="translate(52,119)"/>
<path d="M0 0 C0.02714735 2.22909871 0.04646254 4.45829367 0.0625 6.6875 C0.07410156 7.92886719 0.08570313 9.17023438 0.09765625 10.44921875 C0.01478673 13.46235454 -0.29160551 16.08275339 -1 19 C-1.33 19 -1.66 19 -2 19 C-2.41626139 16.39761763 -2.80854441 13.79534235 -3.1875 11.1875 C-3.36829102 10.08051758 -3.36829102 10.08051758 -3.55273438 8.95117188 C-4.32199134 3.46711419 -4.32199134 3.46711419 -2.61328125 0.98828125 C-1 0 -1 0 0 0 Z " fill="#A80B0E" transform="translate(182,98)"/>
<path d="M0 0 C0.66 0.33 1.32 0.66 2 1 C2 1.66 2 2.32 2 3 C2.66 3 3.32 3 4 3 C4 4.98 4 6.96 4 9 C1.69 9 -0.62 9 -3 9 C-2.25 2.25 -2.25 2.25 0 0 Z " fill="#D70905" transform="translate(148,95)"/>
<path d="M0 0 C0.5775 0.639375 1.155 1.27875 1.75 1.9375 C3.98062401 3.98223868 5.07436391 4.58205199 8 5 C8 4.01 8 3.02 8 2 C8.99 2.33 9.98 2.66 11 3 C11 6.57575896 9.91159393 8.05295935 8 11 C7.67 10.01 7.34 9.02 7 8 C3.99152582 6.77479736 3.99152582 6.77479736 1 6 C0.67 4.02 0.34 2.04 0 0 Z " fill="#F8F8F9" transform="translate(81,188)"/>
<path d="M0 0 C0.33 1.32 0.66 2.64 1 4 C2.97536745 3.65213292 2.97536745 3.65213292 5 3 C5.33 2.34 5.66 1.68 6 1 C5.814375 2.051875 5.62875 3.10375 5.4375 4.1875 C5.04920669 7.57119882 5.11752515 9.76425888 6 13 C-0.70459519 8.06345733 -0.70459519 8.06345733 -1.9375 3.625 C-1.9684375 2.325625 -1.9684375 2.325625 -2 1 C-1.34 0.67 -0.68 0.34 0 0 Z " fill="#2B0BD5" transform="translate(63,117)"/>
<path d="M0 0 C2.6875 0.3125 2.6875 0.3125 5 1 C5 3.64 5 6.28 5 9 C4.01 9.495 4.01 9.495 3 10 C1.02 7.69 -0.96 5.38 -3 3 C-2.01 2.01 -1.02 1.02 0 0 Z " fill="#F9F8F4" transform="translate(60,72)"/>
<path d="M0 0 C1.65 0 3.3 0 5 0 C5 1.65 5 3.3 5 5 C6.65 5.33 8.3 5.66 10 6 C10 6.33 10 6.66 10 7 C8.02 7 6.04 7 4 7 C4 7.99 4 8.98 4 10 C3.34 10 2.68 10 2 10 C1.34 6.7 0.68 3.4 0 0 Z " fill="#D5D9EA" transform="translate(184,183)"/>
<path d="M0 0 C-0.33 0.66 -0.66 1.32 -1 2 C-3.5625 2.625 -3.5625 2.625 -6 3 C-5.01 3.99 -4.02 4.98 -3 6 C-6.97662354 7.32554118 -9.09887911 6.34765994 -13 5 C-13.66 4.34 -14.32 3.68 -15 3 C-12.87790224 2.30359327 -10.75221473 1.61811643 -8.625 0.9375 C-6.84996094 0.36322266 -6.84996094 0.36322266 -5.0390625 -0.22265625 C-2 -1 -2 -1 0 0 Z " fill="#E92017" transform="translate(124,145)"/>
<path d="M0 0 C0.33 0.66 0.66 1.32 1 2 C2.98 2 4.96 2 7 2 C7 1.34 7 0.68 7 0 C7.99 0 8.98 0 10 0 C10 0.99 10 1.98 10 3 C5.51023509 4.75210338 1.81989758 5.37076135 -3 5 C-3.66 4.34 -4.32 3.68 -5 3 C-3.35 2.01 -1.7 1.02 0 0 Z " fill="#390AE2" transform="translate(102,145)"/>
<path d="M0 0 C3.465 1.98 3.465 1.98 7 4 C7 4.66 7 5.32 7 6 C5.68 5.67 4.36 5.34 3 5 C2.67 5.99 2.34 6.98 2 8 C1.01 8 0.02 8 -1 8 C-1 7.34 -1 6.68 -1 6 C-2.65 5.67 -4.3 5.34 -6 5 C-5.67 4.34 -5.34 3.68 -5 3 C-3.66666667 2.66666667 -2.33333333 2.33333333 -1 2 C-0.67 1.34 -0.34 0.68 0 0 Z " fill="#4514DE" transform="translate(102,121)"/>
<path d="M0 0 C2.64 0 5.28 0 8 0 C6.68 0.33 5.36 0.66 4 1 C4 1.66 4 2.32 4 3 C5.32 3.33 6.64 3.66 8 4 C8.66 2.68 9.32 1.36 10 0 C10.66 1.32 11.32 2.64 12 4 C11 5 11 5 8.49609375 5.09765625 C6.98208984 5.08025391 6.98208984 5.08025391 5.4375 5.0625 C4.42558594 5.05347656 3.41367187 5.04445312 2.37109375 5.03515625 C1.58863281 5.02355469 0.80617188 5.01195312 0 5 C0 3.35 0 1.7 0 0 Z " fill="#F9FBF4" transform="translate(24,177)"/>
<path d="M0 0 C-2.39763185 2.39763185 -3.33273498 2.34280586 -6.625 2.625 C-7.85089844 2.73714844 -7.85089844 2.73714844 -9.1015625 2.8515625 C-9.72804688 2.90054688 -10.35453125 2.94953125 -11 3 C-11 2.34 -11 1.68 -11 1 C-16.28 1 -21.56 1 -27 1 C-27 0.67 -27 0.34 -27 0 C-23.62554272 -0.19825948 -20.25043278 -0.38167324 -16.875 -0.5625 C-15.44800781 -0.64661133 -15.44800781 -0.64661133 -13.9921875 -0.73242188 C-9.16209924 -0.98398897 -4.75809383 -1.08138496 0 0 Z " fill="#E7CECE" transform="translate(131,172)"/>
<path d="M0 0 C0.680625 0.4125 1.36125 0.825 2.0625 1.25 C0.12995228 3.2745738 -1.56908688 4.67105792 -3.9375 6.25 C-7.125 5.875 -7.125 5.875 -9.9375 5.25 C-9.9375 4.59 -9.9375 3.93 -9.9375 3.25 C-3.66057692 -0.93461538 -3.66057692 -0.93461538 0 0 Z " fill="#F0E1E4" transform="translate(142.9375,130.75)"/>
<path d="M0 0 C0.33 0 0.66 0 1 0 C2.57411179 10.95496719 2.57411179 10.95496719 0 15 C-2.125 16.8125 -2.125 16.8125 -4 18 C-4.99 17.01 -5.98 16.02 -7 15 C-5.37660195 13.29115995 -3.70680947 11.62553283 -2 10 C-1.34 10 -0.68 10 0 10 C0 6.7 0 3.4 0 0 Z " fill="#FBF2D4" transform="translate(154,68)"/>
<path d="M0 0 C0.66 0 1.32 0 2 0 C2 0.99 2 1.98 2 3 C2.99 3.33 3.98 3.66 5 4 C4.67 5.32 4.34 6.64 4 8 C2.02 8 0.04 8 -2 8 C-2 6.68 -2 5.36 -2 4 C-2.66 4 -3.32 4 -4 4 C-4 3.34 -4 2.68 -4 2 C-2.68 2 -1.36 2 0 2 C0 1.34 0 0.68 0 0 Z " fill="#F6D635" transform="translate(109,32)"/>
<path d="M0 0 C1.32 0 2.64 0 4 0 C3.34 3.63 2.68 7.26 2 11 C0.68 10.67 -0.64 10.34 -2 10 C-2 9.34 -2 8.68 -2 8 C-1.34 7.67 -0.68 7.34 0 7 C-0.99 6.67 -1.98 6.34 -3 6 C-2.34 5.34 -1.68 4.68 -1 4 C-0.3574765 1.93125966 -0.3574765 1.93125966 0 0 Z " fill="#0A1587" transform="translate(86,182)"/>
<path d="M0 0 C0.474375 0.639375 0.94875 1.27875 1.4375 1.9375 C2.83738726 3.88293306 2.83738726 3.88293306 4 5 C4.07244053 7.01964199 4.08377188 9.04167124 4.0625 11.0625 C4.05347656 12.16722656 4.04445313 13.27195312 4.03515625 14.41015625 C4.02355469 15.26480469 4.01195312 16.11945313 4 17 C3.34 16.34 2.68 15.68 2 15 C2 13.68 2 12.36 2 11 C1.01 11 0.02 11 -1 11 C-1 7.25838897 -0.48661829 3.71046443 0 0 Z " fill="#2D17D4" transform="translate(52,93)"/>
<path d="M0 0 C0.99 0 1.98 0 3 0 C2.67 3.63 2.34 7.26 2 11 C0.68 11 -0.64 11 -2 11 C-1.85892253 9.54119891 -1.71197585 8.08296449 -1.5625 6.625 C-1.48128906 5.81289062 -1.40007812 5.00078125 -1.31640625 4.1640625 C-1 2 -1 2 0 0 Z " fill="#0F188E" transform="translate(139,182)"/>
<path d="M0 0 C2.64 0 5.28 0 8 0 C8.33 0.99 8.66 1.98 9 3 C5.17679443 4.42258812 2.08718695 5.24042276 -2 5 C-1.34 3.35 -0.68 1.7 0 0 Z " fill="#CE0D04" transform="translate(125,165)"/>
<path d="M0 0 C1.65 0.33 3.3 0.66 5 1 C4.236875 1.7425 3.47375 2.485 2.6875 3.25 C0.5606298 5.4263323 -1.2559956 7.52167796 -3 10 C-4.32 9.34 -5.64 8.68 -7 8 C-4.69 5.36 -2.38 2.72 0 0 Z " fill="#F2E4DF" transform="translate(178,96)"/>
<path d="M0 0 C-2.05233685 2.2477975 -3.00667261 3.0022242 -6 4 C-8.33299825 4.03954234 -10.66708189 4.04401732 -13 4 C-13.33 3.34 -13.66 2.68 -14 2 C-9.35150485 -0.3992233 -5.08913926 -0.19957409 0 0 Z " fill="#EFE1E5" transform="translate(136,160)"/>
<path d="M0 0 C4.30840713 1.07710178 7.63576723 2.03947516 11 5 C10.67 6.32 10.34 7.64 10 9 C6.78956118 7.61811547 4.95063635 6.07578097 2.75 3.375 C2.22921875 2.74335937 1.7084375 2.11171875 1.171875 1.4609375 C0.78515625 0.97882813 0.3984375 0.49671875 0 0 Z " fill="#F7F4EC" transform="translate(74,97)"/>
<path d="M0 0 C1.32 0 2.64 0 4 0 C3.34 3.63 2.68 7.26 2 11 C1.01 11 0.02 11 -1 11 C-0.67 7.37 -0.34 3.74 0 0 Z " fill="#0A118D" transform="translate(122,182)"/>
<path d="M0 0 C0.99 0 1.98 0 3 0 C2.67 3.63 2.34 7.26 2 11 C0.68 11 -0.64 11 -2 11 C-1.34 7.37 -0.68 3.74 0 0 Z " fill="#0A128B" transform="translate(157,182)"/>
<path d="M0 0 C0.99 0.33 1.98 0.66 3 1 C3 3 3 3 1 5.125 C0.34 5.74375 -0.32 6.3625 -1 7 C-0.2575 7.928125 -0.2575 7.928125 0.5 8.875 C2 11 2 11 2 13 C1.34 13 0.68 13 0 13 C0 12.34 0 11.68 0 11 C-0.99 10.67 -1.98 10.34 -3 10 C-3 9.01 -3 8.02 -3 7 C-3.99 6.67 -4.98 6.34 -6 6 C-4.68 5.34 -3.36 4.68 -2 4 C-2.66 3.67 -3.32 3.34 -4 3 C-2.1875 1.4375 -2.1875 1.4375 0 0 Z " fill="#15068F" transform="translate(155,144)"/>
<path d="M0 0 C0 0.99 0 1.98 0 3 C-5.25714286 7 -5.25714286 7 -8 7 C-8 7.66 -8 8.32 -8 9 C-7.34 9.33 -6.68 9.66 -6 10 C-6.99 10.33 -7.98 10.66 -9 11 C-9.33 9.02 -9.66 7.04 -10 5 C-8.90241493 4.15801693 -7.79664683 3.32669329 -6.6875 2.5 C-6.07261719 2.0359375 -5.45773438 1.571875 -4.82421875 1.09375 C-3 0 -3 0 0 0 Z " fill="#F7D324" transform="translate(146,91)"/>
<path d="M0 0 C0.66 0 1.32 0 2 0 C2 0.66 2 1.32 2 2 C3.32 2.33 4.64 2.66 6 3 C5.34 3 4.68 3 4 3 C4 4.65 4 6.3 4 8 C3.38125 7.814375 2.7625 7.62875 2.125 7.4375 C-0.04160178 6.76313824 -0.04160178 6.76313824 -2 8 C-2.33 6.02 -2.66 4.04 -3 2 C-2.01 2 -1.02 2 0 2 C0 1.34 0 0.68 0 0 Z " fill="#F4D010" transform="translate(152,48)"/>
<path d="M0 0 C0.268125 0.639375 0.53625 1.27875 0.8125 1.9375 C1.88667752 4.33131686 1.88667752 4.33131686 5 5 C4.67 6.65 4.34 8.3 4 10 C1.03 9.505 1.03 9.505 -2 9 C-2.33 7.35 -2.66 5.7 -3 4 C-2.34 3.67 -1.68 3.34 -1 3 C-0.67 2.01 -0.34 1.02 0 0 Z " fill="#F4CE19" transform="translate(67,46)"/>
<path d="M0 0 C3.3 0 6.6 0 10 0 C10 0.66 10 1.32 10 2 C10.99 2 11.98 2 13 2 C12.67 4.97 12.34 7.94 12 11 C9.4345406 8.4345406 9.45953913 6.52313332 9 3 C6.36 2.67 3.72 2.34 1 2 C0.67 2.66 0.34 3.32 0 4 C0 2.68 0 1.36 0 0 Z " fill="#BEC2DE" transform="translate(144,180)"/>
<path d="M0 0 C0 4.24645065 -1.81750806 6.38524772 -4 10 C-5.98 10 -7.96 10 -10 10 C-7.02911382 6.00073014 -3.87051275 3.07881696 0 0 Z " fill="#9C1724" transform="translate(175,132)"/>
<path d="M0 0 C0 0.66 0 1.32 0 2 C-0.66 2 -1.32 2 -2 2 C-1.67 3.65 -1.34 5.3 -1 7 C-1.99 7.33 -2.98 7.66 -4 8 C-6.6875 6.5625 -6.6875 6.5625 -9 5 C-6.45523312 2.20075644 -3.92372883 0 0 0 Z " fill="#F26F06" transform="translate(112,117)"/>
<path d="M0 0 C1.98 0 3.96 0 6 0 C6.33 1.65 6.66 3.3 7 5 C4.69 5.66 2.38 6.32 0 7 C0 4.69 0 2.38 0 0 Z " fill="#AA0A07" transform="translate(168,96)"/>
<path d="M0 0 C1.65 0 3.3 0 5 0 C3.18690997 3.77727089 1.0926741 7.37269822 -1 11 C-2.20898633 6.61742454 -2.2184264 4.02089784 0 0 Z " fill="#F9D938" transform="translate(135,69)"/>
<path d="M0 0 C0.99 0 1.98 0 3 0 C4.19287411 3.87684087 5 6.91621923 5 11 C4.01 11 3.02 11 2 11 C1.34 7.37 0.68 3.74 0 0 Z " fill="#051088" transform="translate(181,182)"/>
<path d="M0 0 C2.1640625 0.2421875 2.1640625 0.2421875 4.625 0.875 C5.44226563 1.07867187 6.25953125 1.28234375 7.1015625 1.4921875 C8.04128906 1.74355469 8.04128906 1.74355469 9 2 C9 2.66 9 3.32 9 4 C9.66 4.33 10.32 4.66 11 5 C7.29218328 6.23593891 6.32489747 5.5678132 2.8125 4.0625 C1.91144531 3.68222656 1.01039062 3.30195313 0.08203125 2.91015625 C-0.60503906 2.60980469 -1.29210937 2.30945313 -2 2 C-1.34 1.34 -0.68 0.68 0 0 Z " fill="#4C19E2" transform="translate(84,164)"/>
<path d="M0 0 C0.66 0 1.32 0 2 0 C2.33 0.99 2.66 1.98 3 3 C0.8125 5.5625 0.8125 5.5625 -2 8 C-4.8125 7.8125 -4.8125 7.8125 -7 7 C-4.66666667 4.66666667 -2.33333333 2.33333333 0 0 Z " fill="#EFECEE" transform="translate(167,134)"/>
<path d="M0 0 C0.66 0 1.32 0 2 0 C2.66 0.99 3.32 1.98 4 3 C4.66 3.66 5.32 4.32 6 5 C5.34 5 4.68 5 4 5 C4 5.66 4 6.32 4 7 C4.66 7 5.32 7 6 7 C5.34 8.32 4.68 9.64 4 11 C0.38860104 7.21243523 0.38860104 7.21243523 -1 5 C-0.8125 2.125 -0.8125 2.125 0 0 Z " fill="#ECC82B" transform="translate(84,101)"/>
<path d="M0 0 C1.32 0.33 2.64 0.66 4 1 C2.85760183 2.33627775 1.71098945 3.66895388 0.5625 5 C-0.07558594 5.7425 -0.71367187 6.485 -1.37109375 7.25 C-2.17740234 8.11625 -2.17740234 8.11625 -3 9 C-3.33 9 -3.66 9 -4 9 C-4.33 6.69 -4.66 4.38 -5 2 C-3.68 2.33 -2.36 2.66 -1 3 C-0.67 2.01 -0.34 1.02 0 0 Z " fill="#F9EFEE" transform="translate(159,77)"/>
<path d="M0 0 C2.97 0 5.94 0 9 0 C9 0.66 9 1.32 9 2 C7.02 2.33 5.04 2.66 3 3 C2.67 4.98 2.34 6.96 2 9 C1.67 9 1.34 9 1 9 C0.67 6.03 0.34 3.06 0 0 Z " fill="#F7D20F" transform="translate(65,73)"/>
<path d="M0 0 C3.3 0 6.6 0 10 0 C7.75 2.5 7.75 2.5 5 5 C3.68 5 2.36 5 1 5 C0.67 3.35 0.34 1.7 0 0 Z " fill="#E10807" transform="translate(144,120)"/>
<path d="M0 0 C9.41002278 -0.18451025 9.41002278 -0.18451025 14 1 C11.61426621 2.89213369 9.92824652 4.02391783 7 5 C6.34 4.34 5.68 3.68 5 3 C4.01 3 3.02 3 2 3 C1.34 2.67 0.68 2.34 0 2 C0 1.34 0 0.68 0 0 Z " fill="#CC131C" transform="translate(135,161)"/>
<path d="M0 0 C1.9451 2.91765 2.45276317 4.62537285 3 8 C2.01 8.33 1.02 8.66 0 9 C-1.32 7.68 -2.64 6.36 -4 5 C-2.68 3.35 -1.36 1.7 0 0 Z " fill="#F8F1F1" transform="translate(180,120)"/>
<path d="M0 0 C0.66 0.33 1.32 0.66 2 1 C-1.75 4 -1.75 4 -4 4 C-4 4.99 -4 5.98 -4 7 C-5.32 6.67 -6.64 6.34 -8 6 C-7.67 4.68 -7.34 3.36 -7 2 C-6.401875 1.855625 -5.80375 1.71125 -5.1875 1.5625 C-3.43849596 1.1127561 -1.71322977 0.57107659 0 0 Z " fill="#E1E1E9" transform="translate(62,183)"/>
<path d="M0 0 C2.33944736 0.28730055 4.6739143 0.61936779 7 1 C7 1.66 7 2.32 7 3 C5.68 3 4.36 3 3 3 C3 3.99 3 4.98 3 6 C1.68 6 0.36 6 -1 6 C-1.042721 4.33388095 -1.04063832 2.66617115 -1 1 C-0.67 0.67 -0.34 0.34 0 0 Z " fill="#E2E6ED" transform="translate(96,184)"/>
<path d="M0 0 C3.67420866 0.30618405 4.78135513 0.75771784 7.3125 3.5625 C8.1478125 4.7690625 8.1478125 4.7690625 9 6 C6.1875 6.3125 6.1875 6.3125 3 6 C0 2.1 0 2.1 0 0 Z " fill="#F2F1F3" transform="translate(56,121)"/>
<path d="M0 0 C2.0625 0.4375 2.0625 0.4375 4 1 C0.375 5.875 0.375 5.875 -3 7 C-3.66 5.35 -4.32 3.7 -5 2 C-4.360625 1.855625 -3.72125 1.71125 -3.0625 1.5625 C-1.02454854 1.18992819 -1.02454854 1.18992819 0 0 Z " fill="#BC1515" transform="translate(161,110)"/>
<path d="M0 0 C2.31 0 4.62 0 7 0 C5.02 0.99 5.02 0.99 3 2 C3 3.32 3 4.64 3 6 C2.01 6 1.02 6 0 6 C-0.33 5.01 -0.66 4.02 -1 3 C-1.99 2.67 -2.98 2.34 -4 2 C-3.34 1.67 -2.68 1.34 -2 1 C-1.34 1.33 -0.68 1.66 0 2 C0 1.34 0 0.68 0 0 Z " fill="#FCEFCB" transform="translate(78,72)"/>
<path d="M0 0 C2.50816459 2.50816459 3.61410019 3.90837736 5 7 C3.34385343 7.38218767 1.67542976 7.71395102 0 8 C-0.33 7.67 -0.66 7.34 -1 7 C-1.33 7.66 -1.66 8.32 -2 9 C-2.66 8.67 -3.32 8.34 -4 8 C-2.68 5.36 -1.36 2.72 0 0 Z " fill="#2414C2" transform="translate(53,69)"/>
<path d="M0 0 C2.88437779 1.29299694 4.87219421 2.65941363 7 5 C5.35 5.66 3.7 6.32 2 7 C2 6.34 2 5.68 2 5 C1.01 4.67 0.02 4.34 -1 4 C-0.67 2.68 -0.34 1.36 0 0 Z " fill="#A60611" transform="translate(65,128)"/>
<path d="M0 0 C1.8871875 0.061875 1.8871875 0.061875 3.8125 0.125 C2.8225 0.62 2.8225 0.62 1.8125 1.125 C2.64583333 3.29166667 2.64583333 3.29166667 4.8125 4.125 C-0.12020529 5.7692351 -2.72774193 4.31115592 -7.1875 2.125 C-4.09861478 0.06574319 -3.47814073 -0.1140374 0 0 Z " fill="#F34314" transform="translate(124.1875,127.875)"/>
<path d="M0 0 C0.99 0.33 1.98 0.66 3 1 C1.02 3.31 -0.96 5.62 -3 8 C-4.32 7.67 -5.64 7.34 -7 7 C-4.69 4.69 -2.38 2.38 0 0 Z " fill="#F9F7F4" transform="translate(171,105)"/>
<path d="M0 0 C2.56616632 3.84924948 2.55097676 6.4349304 3 11 C1.0625 10.6875 1.0625 10.6875 -1 10 C-2.31223496 6.06329512 -1.24296256 3.87511856 0 0 Z " fill="#FBF6E5" transform="translate(99,77)"/>
<path d="M0 0 C0.33 0 0.66 0 1 0 C1 3.96 1 7.92 1 12 C1.66 12 2.32 12 3 12 C3 13.98 3 15.96 3 18 C2.01 18 1.02 18 0 18 C0 12.06 0 6.12 0 0 Z " fill="#FDEEC3" transform="translate(114,68)"/>
<path d="M0 0 C2.31 0 4.62 0 7 0 C7.33 2.64 7.66 5.28 8 8 C7.34 8 6.68 8 6 8 C6 7.34 6 6.68 6 6 C3.03 5.505 3.03 5.505 0 5 C0 4.34 0 3.68 0 3 C1.65 3 3.3 3 5 3 C5.33 2.34 5.66 1.68 6 1 C4.02 1 2.04 1 0 1 C0 0.67 0 0.34 0 0 Z " fill="#C6CCE1" transform="translate(192,181)"/>
<path d="M0 0 C0.33 0.66 0.66 1.32 1 2 C1.99 1.67 2.98 1.34 4 1 C4.33 2.65 4.66 4.3 5 6 C3.35 6.33 1.7 6.66 0 7 C-0.66 5.35 -1.32 3.7 -2 2 C-1.34 1.34 -0.68 0.68 0 0 Z " fill="#831420" transform="translate(51,128)"/>
<path d="M0 0 C2.475 0.495 2.475 0.495 5 1 C5.6875 2.6875 5.6875 2.6875 6 5 C4.6875 7.75 4.6875 7.75 3 10 C2.34 10 1.68 10 1 10 C1.33 7.69 1.66 5.38 2 3 C1.34 2.67 0.68 2.34 0 2 C0 1.34 0 0.68 0 0 Z " fill="#FAF5D4" transform="translate(111,33)"/>
<path d="M0 0 C0.66 0 1.32 0 2 0 C1.67 1.65 1.34 3.3 1 5 C2.65 4.01 4.3 3.02 6 2 C4.60667426 5.36720387 3.0210714 6.9859524 0 9 C-0.66 8.01 -1.32 7.02 -2 6 C-1.125 2.8125 -1.125 2.8125 0 0 Z " fill="#A10B06" transform="translate(170,122)"/>
<path d="M0 0 C0 0.99 0 1.98 0 3 C-0.99 3.33 -1.98 3.66 -3 4 C-3.33 3.67 -3.66 3.34 -4 3 C-4 5.31 -4 7.62 -4 10 C-4.66 9.67 -5.32 9.34 -6 9 C-6 6.03 -6 3.06 -6 0 C-3.50907189 -1.24546405 -2.58919267 -0.7767578 0 0 Z " fill="#CFD2EE" transform="translate(50,109)"/>
<path d="M0 0 C-1.35021826 4.41889613 -3.26115668 6.34345343 -7 9 C-7.24862931 6.01644824 -7.18991433 4.35134151 -5.75 1.6875 C-4 0 -4 0 0 0 Z " fill="#B31819" transform="translate(173,101)"/>
<path d="M0 0 C2.9375 0.25 2.9375 0.25 4.9375 1.25 C4.9375 1.91 4.9375 2.57 4.9375 3.25 C1.3075 3.25 -2.3225 3.25 -6.0625 3.25 C-3.0625 0.25 -3.0625 0.25 0 0 Z " fill="#B60504" transform="translate(115.0625,168.75)"/>
<path d="M0 0 C2.97 0 5.94 0 9 0 C9.33 1.65 9.66 3.3 10 5 C9.34 5 8.68 5 8 5 C8 4.34 8 3.68 8 3 C5.69 2.34 3.38 1.68 1 1 C0.67 1.99 0.34 2.98 0 4 C0 2.68 0 1.36 0 0 Z " fill="#060D88" transform="translate(110,182)"/>
<path d="M0 0 C2.64 0.99 5.28 1.98 8 3 C7.01 4.485 7.01 4.485 6 6 C3.69 5.34 1.38 4.68 -1 4 C-0.67 2.68 -0.34 1.36 0 0 Z " fill="#4606D5" transform="translate(92,152)"/>
<path d="M0 0 C0.33 0.66 0.66 1.32 1 2 C1.66 2.33 2.32 2.66 3 3 C2.34 3.433125 1.68 3.86625 1 4.3125 C0.34 4.869375 -0.32 5.42625 -1 6 C-1 6.99 -1 7.98 -1 9 C-2.32 9 -3.64 9 -5 9 C-4.42647107 5.12867972 -2.51295648 2.91827204 0 0 Z " fill="#E6E6F2" transform="translate(169,143)"/>
<path d="M0 0 C2.64 1.32 5.28 2.64 8 4 C8 4.33 8 4.66 8 5 C4.7 5.33 1.4 5.66 -2 6 C-1.34 4.02 -0.68 2.04 0 0 Z " fill="#C50916" transform="translate(85,142)"/>
<path d="M0 0 C0.66 1.98 1.32 3.96 2 6 C1.01 6.66 0.02 7.32 -1 8 C-2.74627478 5.38058783 -3.38722388 3.96175123 -4 1 C-2 0 -2 0 0 0 Z " fill="#CA0606" transform="translate(156,112)"/>
<path d="M0 0 C0.66 0.33 1.32 0.66 2 1 C0.73742767 2.17560179 -0.53537084 3.34022865 -1.8125 4.5 C-2.87404297 5.47453125 -2.87404297 5.47453125 -3.95703125 6.46875 C-6 8 -6 8 -9 8 C-9 7.34 -9 6.68 -9 6 C-7.03125 4.4921875 -7.03125 4.4921875 -4.5 2.875 C-3.6646875 2.33617188 -2.829375 1.79734375 -1.96875 1.2421875 C-1.3190625 0.83226563 -0.669375 0.42234375 0 0 Z " fill="#F8E8DA" transform="translate(147,92)"/>
<path d="M0 0 C1.32 0 2.64 0 4 0 C2.63016497 3.16115776 2.0109362 3.9927092 -1 6 C-1.99 6 -2.98 6 -4 6 C-2.84826645 3.53199953 -1.95216435 1.95216435 0 0 Z " fill="#FCF3DE" transform="translate(139,90)"/>
<path d="M0 0 C3.08669204 3.08669204 3.44855089 3.91927658 4 8 C2.68 8.33 1.36 8.66 0 9 C0 6.03 0 3.06 0 0 Z " fill="#AB1816" transform="translate(172,71)"/>
<path d="M0 0 C0.103125 0.639375 0.20625 1.27875 0.3125 1.9375 C0.539375 2.618125 0.76625 3.29875 1 4 C1.99 4.33 2.98 4.66 4 5 C4.33 7.31 4.66 9.62 5 12 C2.35247996 9.42215154 0.05567935 7.08351902 -2 4 C-1.34 2.68 -0.68 1.36 0 0 Z " fill="#1908C7" transform="translate(54,108)"/>
<path d="M0 0 C0.33 0 0.66 0 1 0 C1 4 1 8 1 12 C-1.66735273 9.51047079 -3.55746343 7.36591866 -5 4 C-3.02 4.99 -3.02 4.99 -1 6 C-0.67 4.02 -0.34 2.04 0 0 Z " fill="#EBE8DB" transform="translate(65,75)"/>
<path d="M0 0 C0.66 1.32 1.32 2.64 2 4 C1.01 5.32 0.02 6.64 -1 8 C-1.33 7.67 -1.66 7.34 -2 7 C-2.99 8.485 -2.99 8.485 -4 10 C-4.66 9.67 -5.32 9.34 -6 9 C-4.02 6.03 -2.04 3.06 0 0 Z " fill="#FCF3D4" transform="translate(138,72)"/>
<path d="M0 0 C0.99 0.33 1.98 0.66 3 1 C2.67 2.65 2.34 4.3 2 6 C0.68 5.67 -0.64 5.34 -2 5 C-1.125 1.125 -1.125 1.125 0 0 Z " fill="#EEF0F2" transform="translate(69,184)"/>
<path d="M0 0 C-0.66 1.98 -1.32 3.96 -2 6 C-3.32 5.34 -4.64 4.68 -6 4 C-6 3.34 -6 2.68 -6 2 C-6.66 1.67 -7.32 1.34 -8 1 C-5.07175348 0.02391783 -3.04386724 -0.08226668 0 0 Z " fill="#B80704" transform="translate(83,142)"/>
<path d="M0 0 C0.99 0 1.98 0 3 0 C3 0.66 3 1.32 3 2 C2.34 2.66 1.68 3.32 1 4 C1.99 5.65 2.98 7.3 4 9 C2.1875 8.875 2.1875 8.875 0 8 C-1.75 4.9375 -1.75 4.9375 -3 2 C-2.01 2 -1.02 2 0 2 C0 1.34 0 0.68 0 0 Z " fill="#FBF7E9" transform="translate(94,80)"/>
<path d="M0 0 C0.66 0.33 1.32 0.66 2 1 C0.95125002 3.62187494 0.35068687 4.79371361 -2.125 6.25 C-2.74375 6.4975 -3.3625 6.745 -4 7 C-4.33 6.01 -4.66 5.02 -5 4 C-3 1 -3 1 0 0 Z " fill="#FDF7E0" transform="translate(110,48)"/>
<path d="M0 0 C2.64 0 5.28 0 8 0 C8.33 0.66 8.66 1.32 9 2 C6.04335481 3.4783226 3.25770263 3.06032783 0 3 C0 2.01 0 1.02 0 0 Z " fill="#1B218F" transform="translate(188,190)"/>
<path d="M0 0 C1.32 0 2.64 0 4 0 C3.88637738 1.4800841 3.75877092 2.95910074 3.625 4.4375 C3.52058594 5.67306641 3.52058594 5.67306641 3.4140625 6.93359375 C3.27742187 7.61550781 3.14078125 8.29742187 3 9 C2.01 9.495 2.01 9.495 1 10 C0.67 6.7 0.34 3.4 0 0 Z " fill="#151D8E" transform="translate(170,182)"/>
<path d="M0 0 C2.125 0.9375 2.125 0.9375 4 2 C3.67 3.32 3.34 4.64 3 6 C0.525 5.01 0.525 5.01 -2 4 C-2 3.01 -2 2.02 -2 1 C-1.34 0.67 -0.68 0.34 0 0 Z " fill="#DD1B0B" transform="translate(106,149)"/>
<path d="M0 0 C1.98 0 3.96 0 6 0 C6 1.65 6 3.3 6 5 C5.01 5.33 4.02 5.66 3 6 C2.01 4.02 1.02 2.04 0 0 Z " fill="#871820" transform="translate(52,136)"/>
<path d="M0 0 C2.625 0.9375 2.625 0.9375 5 2 C5 2.99 5 3.98 5 5 C4.01 5 3.02 5 2 5 C2 4.34 2 3.68 2 3 C-0.31 3 -2.62 3 -5 3 C-2 1 -2 1 0 0 Z " fill="#BD100E" transform="translate(71,133)"/>
<path d="M0 0 C0.33 0.66 0.66 1.32 1 2 C1.66 2 2.32 2 3 2 C3.33 1.34 3.66 0.68 4 0 C4.33 1.32 4.66 2.64 5 4 C3.02 4.33 1.04 4.66 -1 5 C-1 1 -1 1 0 0 Z " fill="#EA140D" transform="translate(141,99)"/>
<path d="M0 0 C0.99 0 1.98 0 3 0 C3 1.65 3 3.3 3 5 C1.68 5.33 0.36 5.66 -1 6 C-1.66 5.01 -2.32 4.02 -3 3 C-2.01 3 -1.02 3 0 3 C0 2.01 0 1.02 0 0 Z " fill="#1E2691" transform="translate(99,187)"/>
<path d="M0 0 C-2 4 -2 4 -3.75 4.75 C-6.64430225 5.07158914 -8.40065973 4.22746624 -11 3 C-11 2.67 -11 2.34 -11 2 C-3.375 0 -3.375 0 0 0 Z " fill="#BD061F" transform="translate(104,150)"/>
<path d="M0 0 C1.32 0.33 2.64 0.66 4 1 C4 1.66 4 2.32 4 3 C4.99 3 5.98 3 7 3 C7.33 4.32 7.66 5.64 8 7 C4.5625 5.75 4.5625 5.75 1 4 C0.0625 1.8125 0.0625 1.8125 0 0 Z " fill="#EB1505" transform="translate(108,149)"/>
<path d="M0 0 C0.66 0 1.32 0 2 0 C2 0.66 2 1.32 2 2 C3.32 2.33 4.64 2.66 6 3 C6 4.98 6 6.96 6 9 C5.34 9 4.68 9 4 9 C3.566875 7.88625 3.566875 7.88625 3.125 6.75 C2.17697356 4.43260203 1.15154089 2.22082885 0 0 Z " fill="#2501DC" transform="translate(60,112)"/>
<path d="M0 0 C2.55902083 4.94047694 3.41067779 8.51403082 2 14 C1.67 14 1.34 14 1 14 C-0.20568053 9.32798795 -0.09382426 4.78503708 0 0 Z " fill="#AF0705" transform="translate(179,103)"/>
<path d="M0 0 C1 2 1 2 0.51171875 4.12890625 C0.23972656 4.93199219 -0.03226563 5.73507813 -0.3125 6.5625 C-0.57675781 7.36816406 -0.84101563 8.17382812 -1.11328125 9.00390625 C-2 11 -2 11 -4 12 C-3.5317879 7.22423661 -2.75668002 3.95523655 0 0 Z " fill="#F5CF0C" transform="translate(134,72)"/>
<path d="M0 0 C1.1725131 0.95117134 2.33787015 1.91117009 3.5 2.875 C4.47453125 3.67550781 4.47453125 3.67550781 5.46875 4.4921875 C5.9740625 4.98976562 6.479375 5.48734375 7 6 C7 6.66 7 7.32 7 8 C5.02 7.34 3.04 6.68 1 6 C0.67 4.02 0.34 2.04 0 0 Z " fill="#EAEEEE" transform="translate(81,188)"/>
<path d="M0 0 C0.99 0.33 1.98 0.66 3 1 C4.1875 3.5625 4.1875 3.5625 5 6 C2.03 5.505 2.03 5.505 -1 5 C-1 2 -1 2 0 0 Z " fill="#3D49A9" transform="translate(41,183)"/>
<path d="M0 0 C2.00720923 0.28674418 4.0085944 0.61866701 6 1 C5.67 1.99 5.34 2.98 5 4 C5 3.34 5 2.68 5 2 C4.01 2 3.02 2 2 2 C1.67 4.31 1.34 6.62 1 9 C0.67 9 0.34 9 0 9 C-0.87890625 2.84765625 -0.87890625 2.84765625 -1 1 C-0.67 0.67 -0.34 0.34 0 0 Z " fill="#D2D6E7" transform="translate(137,180)"/>
<path d="M0 0 C2.31 0.66 4.62 1.32 7 2 C7 2.66 7 3.32 7 4 C8.32 4.66 9.64 5.32 11 6 C9.02 6 7.04 6 5 6 C4.67 5.01 4.34 4.02 4 3 C1.98491642 2.26676204 1.98491642 2.26676204 0 2 C0 1.34 0 0.68 0 0 Z " fill="#F1EDF9" transform="translate(90,169)"/>
<path d="M0 0 C0.66 0.33 1.32 0.66 2 1 C1.67 1.66 1.34 2.32 1 3 C2.32 3.33 3.64 3.66 5 4 C3.6875 5.5 3.6875 5.5 2 7 C1.01 7 0.02 7 -1 7 C-2 4 -2 4 -1.0625 1.8125 C-0.5365625 0.9153125 -0.5365625 0.9153125 0 0 Z " fill="#3D17D9" transform="translate(106,159)"/>
<path d="M0 0 C1.32 0.66 2.64 1.32 4 2 C1.32521756 3.6627026 -0.9995144 4.99983813 -4 6 C-4.33 5.34 -4.66 4.68 -5 4 C-3.35 3.34 -1.7 2.68 0 2 C0 1.34 0 0.68 0 0 Z " fill="#DF1114" transform="translate(135,153)"/>
<path d="M0 0 C2.31 0.66 4.62 1.32 7 2 C6.67 2.66 6.34 3.32 6 4 C3.4375 4.625 3.4375 4.625 1 5 C1 4.34 1 3.68 1 3 C0.34 3 -0.32 3 -1 3 C-0.67 2.01 -0.34 1.02 0 0 Z " fill="#300DC5" transform="translate(126,133)"/>
<path d="M0 0 C0.33 0.66 0.66 1.32 1 2 C2.32 2 3.64 2 5 2 C5.33 3.32 5.66 4.64 6 6 C0.25 4.25 0.25 4.25 -2 2 C-1.34 1.34 -0.68 0.68 0 0 Z " fill="#EB5A1D" transform="translate(111,123)"/>
<path d="M0 0 C3.16115776 1.36983503 3.9927092 1.9890638 6 5 C2.28400809 5.20086443 1.22791555 5.1519437 -2 3 C-1 1 -1 1 0 0 Z " fill="#2804CA" transform="translate(53,122)"/>
<path d="M0 0 C0.66 0.99 1.32 1.98 2 3 C1.34 4.32 0.68 5.64 0 7 C-0.66 7 -1.32 7 -2 7 C-2.6875 5.1875 -2.6875 5.1875 -3 3 C-1.5625 1.25 -1.5625 1.25 0 0 Z " fill="#A50605" transform="translate(167,114)"/>
<path d="M0 0 C2.31 0.33 4.62 0.66 7 1 C6.67 2.65 6.34 4.3 6 6 C3.96166576 4.7260411 1.96147874 3.38938077 0 2 C0 1.34 0 0.68 0 0 Z " fill="#EFCB1E" transform="translate(94,114)"/>
<path d="M0 0 C1.32 0.33 2.64 0.66 4 1 C4 1.66 4 2.32 4 3 C3.34 3 2.68 3 2 3 C2 3.66 2 4.32 2 5 C0.35 4.67 -1.3 4.34 -3 4 C-2.01 2.68 -1.02 1.36 0 0 Z " fill="#F73D06" transform="translate(130,107)"/>
<path d="M0 0 C0.33 0.99 0.66 1.98 1 3 C1.99 3.33 2.98 3.66 4 4 C4 4.99 4 5.98 4 7 C2.35 6.67 0.7 6.34 -1 6 C-1.042721 4.33388095 -1.04063832 2.66617115 -1 1 C-0.67 0.67 -0.34 0.34 0 0 Z " fill="#CE0402" transform="translate(148,97)"/>
<path d="M0 0 C0.66 0 1.32 0 2 0 C2.33 1.98 2.66 3.96 3 6 C1.35 6.66 -0.3 7.32 -2 8 C-1.125 1.125 -1.125 1.125 0 0 Z " fill="#B20805" transform="translate(157,88)"/>
<path d="M0 0 C0.66 0.33 1.32 0.66 2 1 C0.88121617 2.17262904 -0.24523051 3.33795138 -1.375 4.5 C-2.00148437 5.1496875 -2.62796875 5.799375 -3.2734375 6.46875 C-5 8 -5 8 -7 8 C-6.67 7.01 -6.34 6.02 -6 5 C-5.34 4.67 -4.68 4.34 -4 4 C-3.67 3.01 -3.34 2.02 -3 1 C-2.01 0.67 -1.02 0.34 0 0 Z " fill="#F6D10E" transform="translate(148,80)"/>
<path d="M0 0 C1.32 1.32 2.64 2.64 4 4 C3.34 5.32 2.68 6.64 2 8 C0.68 6.68 -0.64 5.36 -2 4 C-1.34 2.68 -0.68 1.36 0 0 Z " fill="#F9D227" transform="translate(68,78)"/>
<path d="M0 0 C1.9955516 3.99110319 2.19546065 5.69986566 2 10 C1.01 10 0.02 10 -1 10 C-0.67 6.7 -0.34 3.4 0 0 Z " fill="#FCF3D4" transform="translate(105,76)"/>
<path d="M0 0 C2.475 0.495 2.475 0.495 5 1 C5.33 2.32 5.66 3.64 6 5 C3.03 4.505 3.03 4.505 0 4 C0 2.68 0 1.36 0 0 Z " fill="#6C78BA" transform="translate(113,184)"/>
<path d="M0 0 C-0.33 0.99 -0.66 1.98 -1 3 C-3.91482778 3.80967438 -5.46113217 4.21845993 -8.3125 3.0625 C-8.869375 2.711875 -9.42625 2.36125 -10 2 C-3.375 0 -3.375 0 0 0 Z " fill="#B70821" transform="translate(124,166)"/>
<path d="M0 0 C1.65 0 3.3 0 5 0 C4.34 0.66 3.68 1.32 3 2 C3 2.99 3 3.98 3 5 C1.35 5 -0.3 5 -2 5 C-2 3 -2 3 0 1 C0 0.67 0 0.34 0 0 Z " fill="#CA0807" transform="translate(138,162)"/>
<path d="M0 0 C-2.05233685 2.2477975 -3.00667261 3.0022242 -6 4 C-6 3.01 -6 2.02 -6 1 C-6.66 0.67 -7.32 0.34 -8 0 C-4.94736336 -0.98120464 -3.05263664 -0.98120464 0 0 Z " fill="#1E04BB" transform="translate(136,137)"/>
<path d="M0 0 C1.70840281 1.63412443 2.93453047 2.86906094 4 5 C3.72057545 6.67654729 3.39171753 8.34608154 3 10 C1.5 8.9375 1.5 8.9375 0 7 C-0.1875 3.3125 -0.1875 3.3125 0 0 Z " fill="#342CCA" transform="translate(44,96)"/>
<path d="M0 0 C2.125 0.9375 2.125 0.9375 4 2 C4 2.99 4 3.98 4 5 C2.68 4.34 1.36 3.68 0 3 C-0.99 3.66 -1.98 4.32 -3 5 C-2.625 3.0625 -2.625 3.0625 -2 1 C-1.34 0.67 -0.68 0.34 0 0 Z " fill="#270FC3" transform="translate(67,91)"/>
<path d="M0 0 C0 0.99 0 1.98 0 3 C-4.75 2.25 -4.75 2.25 -7 0 C-4.3333581 -1.33332095 -2.83319697 -0.67102033 0 0 Z " fill="#F2F4F6" transform="translate(97,148)"/>
<path d="M0 0 C2.31 0 4.62 0 7 0 C7 1.65 7 3.3 7 5 C6.21625 4.484375 5.4325 3.96875 4.625 3.4375 C3.75875 2.963125 2.8925 2.48875 2 2 C1.01 2.495 1.01 2.495 0 3 C0 2.01 0 1.02 0 0 Z " fill="#78070C" transform="translate(49,127)"/>
<path d="M0 0 C1.65 0 3.3 0 5 0 C3.35 1.65 1.7 3.3 0 5 C-0.66 4.67 -1.32 4.34 -2 4 C-1.34 2.68 -0.68 1.36 0 0 Z " fill="#F0DFDC" transform="translate(163,113)"/>
<path d="M0 0 C0.99 0 1.98 0 3 0 C1.515 5.445 1.515 5.445 0 11 C-1.35015859 6.94952424 -0.62084998 4.2079832 0 0 Z " fill="#3417DD" transform="translate(66,104)"/>
<path d="M0 0 C2.475 0.495 2.475 0.495 5 1 C4.67 1.99 4.34 2.98 4 4 C1.9375 4.6875 1.9375 4.6875 0 5 C0 3.35 0 1.7 0 0 Z " fill="#F4CE11" transform="translate(107,35)"/>
<path d="M0 0 C0.66 0.33 1.32 0.66 2 1 C1.67 3.64 1.34 6.28 1 9 C-0.32 7.68 -1.64 6.36 -3 5 C-2.34 5 -1.68 5 -1 5 C-0.67 3.35 -0.34 1.7 0 0 Z " fill="#D3D6E6" transform="translate(120,184)"/>
<path d="M0 0 C0.66 0 1.32 0 2 0 C2 1.65 2 3.3 2 5 C0.68 5.33 -0.64 5.66 -2 6 C-1.34 4.02 -0.68 2.04 0 0 Z " fill="#061187" transform="translate(74,184)"/>
<path d="M0 0 C2.97 0.495 2.97 0.495 6 1 C4.68 1.33 3.36 1.66 2 2 C2 3.65 2 5.3 2 7 C0.4375 5.75 0.4375 5.75 -1 4 C-0.6875 1.8125 -0.6875 1.8125 0 0 Z " fill="#D2D7EA" transform="translate(84,180)"/>
<path d="M0 0 C0.99 1.32 1.98 2.64 3 4 C2 5 2 5 -0.06640625 5.09765625 C-0.89011719 5.08605469 -1.71382812 5.07445312 -2.5625 5.0625 C-3.38878906 5.05347656 -4.21507812 5.04445312 -5.06640625 5.03515625 C-5.70449219 5.02355469 -6.34257812 5.01195312 -7 5 C-7 4.67 -7 4.34 -7 4 C-5.02 4 -3.04 4 -1 4 C-0.67 2.68 -0.34 1.36 0 0 Z " fill="#D6DAEC" transform="translate(33,177)"/>
<path d="M0 0 C0.66 0.66 1.32 1.32 2 2 C-1.6441774 4.4294516 -3.71241272 4.16179575 -8 4 C-5.33440687 2.22293791 -2.9719385 1.12451727 0 0 Z " fill="#371AB2" transform="translate(137,156)"/>
<path d="M0 0 C-0.99 0.33 -1.98 0.66 -3 1 C-3 1.66 -3 2.32 -3 3 C-4.98 3.33 -6.96 3.66 -9 4 C-8.67 3.01 -8.34 2.02 -8 1 C-5.29120665 -0.35439668 -2.99066732 -0.06501451 0 0 Z " fill="#F73602" transform="translate(134,128)"/>
<path d="M0 0 C0.66 0 1.32 0 2 0 C1.34 3.3 0.68 6.6 0 10 C-2 6 -2 6 -1.125 2.75 C-0.75375 1.8425 -0.3825 0.935 0 0 Z " fill="#F1F6FB" transform="translate(44,88)"/>
<path d="M0 0 C1.9375 0.375 1.9375 0.375 4 1 C4.33 1.66 4.66 2.32 5 3 C2.36 3.33 -0.28 3.66 -3 4 C-3 3.34 -3 2.68 -3 2 C-2.01 2 -1.02 2 0 2 C0 1.34 0 0.68 0 0 Z " fill="#FDD530" transform="translate(75,84)"/>
<path d="M0 0 C1.32 0 2.64 0 4 0 C4 0.66 4 1.32 4 2 C3.01 2 2.02 2 1 2 C1 2.66 1 3.32 1 4 C-0.32 4 -1.64 4 -3 4 C-3.33 4.66 -3.66 5.32 -4 6 C-4 5.01 -4 4.02 -4 3 C-3.01 3 -2.02 3 -1 3 C-0.67 2.01 -0.34 1.02 0 0 Z " fill="#FDFAED" transform="translate(108,30)"/>
<path d="M0 0 C1 3.875 1 3.875 1 5 C-0.98 5 -2.96 5 -5 5 C-5.33 4.34 -5.66 3.68 -6 3 C-4.02 2.67 -2.04 2.34 0 2 C0 1.34 0 0.68 0 0 Z " fill="#E2E8ED" transform="translate(197,190)"/>
<path d="M0 0 C0.33 0.66 0.66 1.32 1 2 C1.99 2.33 2.98 2.66 4 3 C2.515 5.475 2.515 5.475 1 8 C0.01 7.67 -0.98 7.34 -2 7 C-1.34 7 -0.68 7 0 7 C0 4.69 0 2.38 0 0 Z " fill="#D6DBE9" transform="translate(35,185)"/>
<path d="M0 0 C1.875 0.125 1.875 0.125 4 1 C5.25 4.0625 5.25 4.0625 6 7 C3.95880212 5.38405168 1.95927063 3.7143618 0 2 C0 1.34 0 0.68 0 0 Z " fill="#4216D2" transform="translate(60,147)"/>
<path d="M0 0 C0.33 0.66 0.66 1.32 1 2 C1.99 2.33 2.98 2.66 4 3 C1.69 3.66 -0.62 4.32 -3 5 C-3.66 4.34 -4.32 3.68 -5 3 C-3.35 2.01 -1.7 1.02 0 0 Z " fill="#4614EB" transform="translate(102,145)"/>
<path d="M0 0 C1.875 0.25 1.875 0.25 4 1 C5.25 3.0625 5.25 3.0625 6 5 C4.35 5 2.7 5 1 5 C0.67 3.35 0.34 1.7 0 0 Z " fill="#1F03E2" transform="translate(74,129)"/>
<path d="M0 0 C2.5 1.3125 2.5 1.3125 5 3 C5 3.99 5 4.98 5 6 C2.53199953 4.84826645 0.95216435 3.95216435 -1 2 C-0.67 1.34 -0.34 0.68 0 0 Z " fill="#FCF0D8" transform="translate(82,94)"/>
<path d="M0 0 C2.50037734 2.17424117 3.43628586 3.73045798 4 7 C3.01 7.33 2.02 7.66 1 8 C0.34 7.67 -0.32 7.34 -1 7 C-0.67 4.69 -0.34 2.38 0 0 Z " fill="#FAD52E" transform="translate(82,82)"/>
<path d="M0 0 C0.66 1.32 1.32 2.64 2 4 C1.01 5.32 0.02 6.64 -1 8 C-1.66 7.34 -2.32 6.68 -3 6 C-2.01 4.02 -1.02 2.04 0 0 Z " fill="#F9D62E" transform="translate(129,80)"/>
<path d="M0 0 C1.0625 1.875 1.0625 1.875 2 4 C1.67 4.66 1.34 5.32 1 6 C-0.32 5.67 -1.64 5.34 -3 5 C-3 4.34 -3 3.68 -3 3 C-2.34 3 -1.68 3 -1 3 C-0.67 2.01 -0.34 1.02 0 0 Z " fill="#1501BD" transform="translate(52,75)"/>
<path d="M0 0 C0.66 0.33 1.32 0.66 2 1 C1.34 2.65 0.68 4.3 0 6 C-1.32 4.68 -2.64 3.36 -4 2 C-3.34 1.67 -2.68 1.34 -2 1 C-1.34 1.33 -0.68 1.66 0 2 C0 1.34 0 0.68 0 0 Z " fill="#F4F0EA" transform="translate(174,66)"/>
<path d="M0 0 C0.66 0 1.32 0 2 0 C2 1.32 2 2.64 2 4 C2.99 3.67 3.98 3.34 5 3 C4.67 3.99 4.34 4.98 4 6 C1.525 5.01 1.525 5.01 -1 4 C-0.67 2.68 -0.34 1.36 0 0 Z " fill="#FDFBED" transform="translate(105,36)"/>
</svg>
